<svg xmlns="http://www.w3.org/2000/svg" version="1.1" xmlns:xlink="http://www.w3.org/1999/xlink" xmlns:svgjs="http://svgjs.dev/svgjs" width="2000" height="853" viewBox="0 0 2000 853"><g transform="matrix(1,0,0,1,-1.2121212121212466,-1.1637503711129966)"><svg viewBox="0 0 396 169" data-background-color="#161616" preserveAspectRatio="xMidYMid meet" height="853" width="2000" xmlns="http://www.w3.org/2000/svg" xmlns:xlink="http://www.w3.org/1999/xlink"><g id="tight-bounds" transform="matrix(1,0,0,1,0.2400000000000091,0.23056718958744682)"><svg viewBox="0 0 395.52 168.5388656208251" height="168.5388656208251" width="395.52"><g><svg viewBox="0 0 626.0944401153587 266.79117796457365" height="168.5388656208251" width="395.52"><g transform="matrix(1,0,0,1,230.57444011535867,0)"><svg viewBox="0 0 395.52 266.79117796457365" height="266.79117796457365" width="395.52"><g id="textblocktransform"><svg viewBox="0 0 395.52 266.79117796457365" height="266.79117796457365" width="395.52" id="textblock"><g><svg viewBox="0 0 395.52 220.559328255093" height="220.559328255093" width="395.52"><g transform="matrix(1,0,0,1,0,0)"><svg width="395.52" viewBox="60.84 -37.5 220.50000000000003 119.97" height="220.559328255093" data-palette-color="#ba9956"><svg></svg><svg></svg><svg></svg><g class="wordmark-text-0" data-fill-palette-color="primary" id="text-0"><path transform="translate(56.71,0)" d="M24.22-20.26v3.83h-15.41v12.6h17.9v3.83h-22.58v-35.55h22.33v3.86h-17.65v11.43zM30.27-13.09v-0.34c0-4.053 0.96-7.313 2.88-9.78 1.927-2.46 4.443-3.69 7.55-3.69v0c3.093 0 5.543 1.057 7.35 3.17v0-13.77h4.51v37.5h-4.15l-0.22-2.83c-1.807 2.213-4.32 3.32-7.54 3.32v0c-3.06 0-5.553-1.253-7.48-3.76-1.933-2.507-2.9-5.78-2.9-9.82zM34.79-12.92v0c0 3 0.62 5.347 1.86 7.04 1.233 1.693 2.94 2.54 5.12 2.54v0c2.867 0 4.96-1.287 6.28-3.86v0-12.14c-1.353-2.487-3.43-3.73-6.23-3.73v0c-2.213 0-3.937 0.853-5.17 2.56-1.24 1.713-1.86 4.243-1.86 7.59zM59.55-26.42h4.27l0.12 2.93c1.94-2.273 4.553-3.41 7.84-3.41v0c3.693 0 6.207 1.413 7.54 4.24v0c0.88-1.267 2.023-2.29 3.43-3.07 1.407-0.78 3.07-1.17 4.99-1.17v0c5.8 0 8.747 3.067 8.84 9.2v0 17.7h-4.51v-17.43c0-1.887-0.433-3.3-1.3-4.24-0.86-0.933-2.307-1.4-4.34-1.4v0c-1.68 0-3.073 0.5-4.18 1.5-1.107 1-1.75 2.347-1.93 4.04v0 17.53h-4.54v-17.31c0-3.84-1.88-5.76-5.64-5.76v0c-2.96 0-4.987 1.26-6.08 3.78v0 19.29h-4.51zM102.2-13.13v-0.32c0-2.587 0.507-4.913 1.52-6.98 1.02-2.073 2.437-3.67 4.25-4.79 1.813-1.12 3.883-1.68 6.21-1.68v0c3.6 0 6.51 1.243 8.73 3.73 2.227 2.493 3.34 5.807 3.34 9.94v0 0.31c0 2.573-0.493 4.883-1.48 6.93-0.987 2.04-2.397 3.63-4.23 4.77-1.827 1.14-3.93 1.71-6.31 1.71v0c-3.58 0-6.48-1.247-8.7-3.74-2.22-2.487-3.33-5.78-3.33-9.88zM106.74-12.92v0c0 2.933 0.68 5.287 2.04 7.06 1.36 1.773 3.177 2.66 5.45 2.66v0c2.3 0 4.123-0.9 5.47-2.7 1.353-1.793 2.03-4.31 2.03-7.55v0c0-2.9-0.687-5.25-2.06-7.05-1.38-1.793-3.21-2.69-5.49-2.69v0c-2.227 0-4.023 0.887-5.39 2.66-1.367 1.773-2.05 4.31-2.05 7.61zM131.91-26.42h4.27l0.15 3.32c2.02-2.533 4.657-3.8 7.91-3.8v0c5.58 0 8.397 3.147 8.45 9.44v0 17.46h-4.52v-17.48c-0.02-1.907-0.457-3.313-1.31-4.22-0.853-0.913-2.183-1.37-3.99-1.37v0c-1.467 0-2.753 0.39-3.86 1.17-1.107 0.78-1.967 1.807-2.58 3.08v0 18.82h-4.52zM161.11-32.81h4.52v6.39h4.93v3.5h-4.93v16.38c0 1.053 0.217 1.847 0.65 2.38 0.44 0.527 1.19 0.79 2.25 0.79v0c0.52 0 1.237-0.097 2.15-0.29v0 3.66c-1.187 0.327-2.343 0.49-3.47 0.49v0c-2.02 0-3.54-0.61-4.56-1.83-1.027-1.22-1.54-2.953-1.54-5.2v0-16.38h-4.81v-3.5h4.81zM174.15-13.13v-0.32c0-2.587 0.507-4.913 1.52-6.98 1.02-2.073 2.437-3.67 4.25-4.79 1.813-1.12 3.883-1.68 6.21-1.68v0c3.6 0 6.51 1.243 8.73 3.73 2.22 2.493 3.33 5.807 3.33 9.94v0 0.31c0 2.573-0.49 4.883-1.47 6.93-0.987 2.04-2.397 3.63-4.23 4.77-1.827 1.14-3.93 1.71-6.31 1.71v0c-3.58 0-6.48-1.247-8.7-3.74-2.22-2.487-3.33-5.78-3.33-9.88zM178.69-12.92v0c0 2.933 0.68 5.287 2.04 7.06 1.353 1.773 3.17 2.66 5.45 2.66v0c2.293 0 4.117-0.9 5.47-2.7 1.353-1.793 2.03-4.31 2.03-7.55v0c0-2.9-0.69-5.25-2.07-7.05-1.373-1.793-3.2-2.69-5.48-2.69v0c-2.227 0-4.023 0.887-5.39 2.66-1.367 1.773-2.05 4.31-2.05 7.61zM203.86-26.42h4.27l0.15 3.32c2.013-2.533 4.65-3.8 7.91-3.8v0c5.58 0 8.393 3.147 8.44 9.44v0 17.46h-4.51v-17.48c-0.02-1.907-0.457-3.313-1.31-4.22-0.853-0.913-2.183-1.37-3.99-1.37v0c-1.467 0-2.753 0.39-3.86 1.17-1.107 0.78-1.97 1.807-2.59 3.08v0 18.82h-4.51z" fill="#000000" fill-rule="nonzero" stroke="none" stroke-width="1" stroke-linecap="butt" stroke-linejoin="miter" stroke-miterlimit="10" stroke-dasharray="" stroke-dashoffset="0" font-family="none" font-weight="none" font-size="none" text-anchor="none" style="mix-blend-mode: normal" data-fill-palette-color="primary" opacity="1"></path><path transform="translate(92.66,40.99)" d="M25.56-11.28h4.71c-0.44 3.76-1.827 6.66-4.16 8.7-2.333 2.047-5.437 3.07-9.31 3.07v0c-4.2 0-7.567-1.507-10.1-4.52-2.527-3.007-3.79-7.033-3.79-12.08v0-3.42c0-3.307 0.59-6.213 1.77-8.72 1.18-2.507 2.85-4.43 5.01-5.77 2.167-1.347 4.673-2.02 7.52-2.02v0c3.78 0 6.807 1.057 9.08 3.17 2.28 2.107 3.607 5.023 3.98 8.75v0h-4.71c-0.407-2.833-1.29-4.883-2.65-6.15-1.36-1.273-3.26-1.91-5.7-1.91v0c-2.993 0-5.34 1.107-7.04 3.32-1.7 2.213-2.55 5.363-2.55 9.45v0 3.44c0 3.86 0.803 6.93 2.41 9.21 1.613 2.28 3.87 3.42 6.77 3.42v0c2.6 0 4.597-0.59 5.99-1.77 1.393-1.18 2.317-3.237 2.77-6.17zM57.01 0h-4.74c-0.26-0.52-0.47-1.447-0.63-2.78v0c-2.1 2.18-4.607 3.27-7.52 3.27v0c-2.607 0-4.743-0.737-6.41-2.21-1.667-1.473-2.5-3.34-2.5-5.6v0c0-2.753 1.043-4.89 3.13-6.41 2.093-1.527 5.037-2.29 8.83-2.29v0h4.39v-2.07c0-1.58-0.47-2.837-1.41-3.77-0.947-0.94-2.34-1.41-4.18-1.41v0c-1.613 0-2.963 0.407-4.05 1.22-1.093 0.813-1.64 1.8-1.64 2.96v0h-4.54c0-1.32 0.47-2.593 1.41-3.82 0.933-1.233 2.2-2.207 3.8-2.92 1.607-0.713 3.37-1.07 5.29-1.07v0c3.047 0 5.43 0.76 7.15 2.28 1.727 1.52 2.623 3.617 2.69 6.29v0 12.15c0 2.427 0.31 4.357 0.93 5.79v0zM44.78-3.44v0c1.413 0 2.753-0.367 4.02-1.1 1.273-0.733 2.193-1.687 2.76-2.86v0-5.42h-3.54c-5.533 0-8.3 1.62-8.3 4.86v0c0 1.42 0.473 2.527 1.42 3.32 0.94 0.8 2.153 1.2 3.64 1.2zM78.54-7.01v0c0-1.22-0.46-2.167-1.38-2.84-0.92-0.673-2.523-1.257-4.81-1.75-2.287-0.487-4.1-1.07-5.44-1.75-1.347-0.687-2.34-1.503-2.98-2.45-0.647-0.94-0.97-2.063-0.97-3.37v0c0-2.16 0.917-3.99 2.75-5.49 1.833-1.493 4.173-2.24 7.02-2.24v0c2.993 0 5.423 0.773 7.29 2.32 1.86 1.54 2.79 3.517 2.79 5.93v0h-4.54c0-1.24-0.523-2.307-1.57-3.2-1.053-0.893-2.377-1.34-3.97-1.34v0c-1.647 0-2.933 0.357-3.86 1.07-0.927 0.72-1.39 1.657-1.39 2.81v0c0 1.087 0.43 1.907 1.29 2.46 0.867 0.553 2.427 1.083 4.68 1.59 2.253 0.507 4.08 1.11 5.48 1.81 1.4 0.7 2.437 1.54 3.11 2.52 0.68 0.987 1.02 2.19 1.02 3.61v0c0 2.36-0.947 4.25-2.84 5.67-1.887 1.427-4.333 2.14-7.34 2.14v0c-2.12 0-3.993-0.373-5.62-1.12-1.627-0.753-2.9-1.8-3.82-3.14-0.92-1.347-1.38-2.8-1.38-4.36v0h4.52c0.08 1.513 0.687 2.713 1.82 3.6 1.127 0.887 2.62 1.33 4.48 1.33v0c1.707 0 3.077-0.347 4.11-1.04 1.033-0.687 1.55-1.61 1.55-2.77zM93.85-26.42v26.42h-4.52v-26.42zM88.96-33.42v0c0-0.733 0.227-1.353 0.68-1.86 0.447-0.507 1.11-0.76 1.99-0.76 0.873 0 1.54 0.253 2 0.76 0.453 0.507 0.68 1.127 0.68 1.86 0 0.733-0.227 1.343-0.68 1.83-0.46 0.487-1.127 0.73-2 0.73-0.88 0-1.543-0.243-1.99-0.73-0.453-0.487-0.68-1.097-0.68-1.83zM101.07-26.42h4.28l0.14 3.32c2.02-2.533 4.657-3.8 7.91-3.8v0c5.587 0 8.403 3.147 8.45 9.44v0 17.46h-4.52v-17.48c-0.013-1.907-0.447-3.313-1.3-4.22-0.853-0.913-2.183-1.37-3.99-1.37v0c-1.467 0-2.753 0.39-3.86 1.17-1.107 0.78-1.97 1.807-2.59 3.08v0 18.82h-4.52zM127.47-13.13v-0.32c0-2.587 0.507-4.913 1.52-6.98 1.02-2.073 2.437-3.67 4.25-4.79 1.813-1.12 3.883-1.68 6.21-1.68v0c3.6 0 6.51 1.243 8.73 3.73 2.22 2.493 3.33 5.807 3.33 9.94v0 0.31c0 2.573-0.49 4.883-1.47 6.93-0.987 2.04-2.397 3.63-4.23 4.77-1.827 1.14-3.93 1.71-6.31 1.71v0c-3.58 0-6.48-1.247-8.7-3.74-2.22-2.487-3.33-5.78-3.33-9.88zM132.01-12.92v0c0 2.933 0.68 5.287 2.04 7.06 1.353 1.773 3.17 2.66 5.45 2.66v0c2.293 0 4.117-0.9 5.47-2.7 1.353-1.793 2.03-4.31 2.03-7.55v0c0-2.9-0.69-5.25-2.07-7.05-1.373-1.793-3.2-2.69-5.48-2.69v0c-2.227 0-4.023 0.887-5.39 2.66-1.367 1.773-2.05 4.31-2.05 7.61z" fill="#000000" fill-rule="nonzero" stroke="none" stroke-width="1" stroke-linecap="butt" stroke-linejoin="miter" stroke-miterlimit="10" stroke-dasharray="" stroke-dashoffset="0" font-family="none" font-weight="none" font-size="none" text-anchor="none" style="mix-blend-mode: normal" data-fill-palette-color="secondary" opacity="1"></path><path transform="translate(83.48,81.98)" d="M27.15 0l-3.4-9.28h-14.89l-3.34 9.28h-4.84l13.58-35.55h4.1l13.6 35.55zM16.31-29.76l-6.03 16.63h12.08zM34.94-13.09v-0.34c0-4.053 0.96-7.313 2.88-9.78 1.92-2.46 4.433-3.69 7.54-3.69v0c3.093 0 5.543 1.057 7.35 3.17v0-13.77h4.52v37.5h-4.15l-0.22-2.83c-1.807 2.213-4.323 3.32-7.55 3.32v0c-3.06 0-5.553-1.253-7.48-3.76-1.927-2.507-2.89-5.78-2.89-9.82zM39.45-12.92v0c0 3 0.62 5.347 1.86 7.04 1.233 1.693 2.943 2.54 5.13 2.54v0c2.86 0 4.95-1.287 6.27-3.86v0-12.14c-1.353-2.487-3.43-3.73-6.23-3.73v0c-2.213 0-3.937 0.853-5.17 2.56-1.24 1.713-1.86 4.243-1.86 7.59zM66.24-26.42l6.71 20.29 6.54-20.29h4.62l-9.48 26.42h-3.44l-9.57-26.42zM93.36-26.42v26.42h-4.52v-26.42zM88.48-33.42v0c0-0.733 0.223-1.353 0.67-1.86 0.447-0.507 1.11-0.76 1.99-0.76 0.88 0 1.547 0.253 2 0.76 0.453 0.507 0.68 1.127 0.68 1.86 0 0.733-0.227 1.343-0.68 1.83-0.453 0.487-1.12 0.73-2 0.73-0.88 0-1.543-0.243-1.99-0.73-0.447-0.487-0.67-1.097-0.67-1.83zM115.97-7.01v0c0-1.22-0.46-2.167-1.38-2.84-0.92-0.673-2.523-1.257-4.81-1.75-2.287-0.487-4.103-1.07-5.45-1.75-1.34-0.687-2.333-1.503-2.98-2.45-0.64-0.94-0.96-2.063-0.96-3.37v0c0-2.16 0.917-3.99 2.75-5.49 1.827-1.493 4.167-2.24 7.02-2.24v0c2.993 0 5.42 0.773 7.28 2.32 1.867 1.54 2.8 3.517 2.8 5.93v0h-4.54c0-1.24-0.527-2.307-1.58-3.2-1.047-0.893-2.367-1.34-3.96-1.34v0c-1.647 0-2.933 0.357-3.86 1.07-0.927 0.72-1.39 1.657-1.39 2.81v0c0 1.087 0.43 1.907 1.29 2.46 0.867 0.553 2.427 1.083 4.68 1.59 2.253 0.507 4.08 1.11 5.48 1.81 1.4 0.7 2.437 1.54 3.11 2.52 0.673 0.987 1.01 2.19 1.01 3.61v0c0 2.36-0.943 4.25-2.83 5.67-1.887 1.427-4.337 2.14-7.35 2.14v0c-2.113 0-3.983-0.373-5.61-1.12-1.627-0.753-2.9-1.8-3.82-3.14-0.92-1.347-1.38-2.8-1.38-4.36v0h4.51c0.087 1.513 0.693 2.713 1.82 3.6 1.133 0.887 2.627 1.33 4.48 1.33v0c1.713 0 3.087-0.347 4.12-1.04 1.033-0.687 1.55-1.61 1.55-2.77zM125.17-13.13v-0.32c0-2.587 0.51-4.913 1.53-6.98 1.013-2.073 2.427-3.67 4.24-4.79 1.82-1.12 3.893-1.68 6.22-1.68v0c3.593 0 6.503 1.243 8.73 3.73 2.22 2.493 3.33 5.807 3.33 9.94v0 0.31c0 2.573-0.493 4.883-1.48 6.93-0.987 2.04-2.393 3.63-4.22 4.77-1.833 1.14-3.937 1.71-6.31 1.71v0c-3.58 0-6.483-1.247-8.71-3.74-2.22-2.487-3.33-5.78-3.33-9.88zM129.71-12.92v0c0 2.933 0.68 5.287 2.04 7.06 1.36 1.773 3.18 2.66 5.46 2.66v0c2.293 0 4.117-0.9 5.47-2.7 1.347-1.793 2.02-4.31 2.02-7.55v0c0-2.9-0.687-5.25-2.06-7.05-1.373-1.793-3.2-2.69-5.48-2.69v0c-2.233 0-4.033 0.887-5.4 2.66-1.367 1.773-2.05 4.31-2.05 7.61zM167.65-26.56v4.2c-0.68-0.113-1.42-0.17-2.22-0.17v0c-2.96 0-4.97 1.26-6.03 3.78v0 18.75h-4.52v-26.42h4.4l0.07 3.06c1.48-2.36 3.58-3.54 6.3-3.54v0c0.88 0 1.547 0.113 2 0.34z" fill="#000000" fill-rule="nonzero" stroke="none" stroke-width="1" stroke-linecap="butt" stroke-linejoin="miter" stroke-miterlimit="10" stroke-dasharray="" stroke-dashoffset="0" font-family="none" font-weight="none" font-size="none" text-anchor="none" style="mix-blend-mode: normal" data-fill-palette-color="accent" opacity="1"></path></g></svg></g></svg></g><g transform="matrix(1,0,0,1,0,236.64524997045172)"><svg viewBox="0 0 395.52 30.145927994121966" height="30.145927994121966" width="395.52"><g transform="matrix(1,0,0,1,0,0)"><svg width="395.52" viewBox="4.13 -37.5 498.41 37.99" height="30.145927994121966" data-palette-color="#fff5d0"><path d="M23.73-19.53L23.73-15.7 8.81-15.7 8.81 0 4.13 0 4.13-35.55 26.15-35.55 26.15-31.69 8.81-31.69 8.81-19.53 23.73-19.53ZM46.92 0L46.83-2.61Q44.19 0.49 39.09 0.49L39.09 0.49Q34.86 0.49 32.65-1.97 30.44-4.42 30.42-9.23L30.42-9.23 30.42-26.42 34.94-26.42 34.94-9.35Q34.94-3.34 39.82-3.34L39.82-3.34Q45-3.34 46.7-7.2L46.7-7.2 46.7-26.42 51.22-26.42 51.22 0 46.92 0ZM58.08-26.42L62.35-26.42 62.5-23.1Q65.53-26.9 70.41-26.9L70.41-26.9Q78.78-26.9 78.86-17.46L78.86-17.46 78.86 0 74.34 0 74.34-17.48Q74.32-20.34 73.03-21.7 71.75-23.07 69.04-23.07L69.04-23.07Q66.85-23.07 65.19-21.9 63.53-20.73 62.6-18.82L62.6-18.82 62.6 0 58.08 0 58.08-26.42ZM84.57-13.09L84.57-13.43Q84.57-19.51 87.45-23.21 90.33-26.9 95-26.9L95-26.9Q99.63-26.9 102.34-23.73L102.34-23.73 102.34-37.5 106.86-37.5 106.86 0 102.71 0 102.49-2.83Q99.78 0.49 94.95 0.49L94.95 0.49Q90.36 0.49 87.46-3.27 84.57-7.03 84.57-13.09L84.57-13.09ZM89.09-12.92L89.09-12.92Q89.09-8.42 90.94-5.88 92.8-3.34 96.07-3.34L96.07-3.34Q100.37-3.34 102.34-7.2L102.34-7.2 102.34-19.34Q100.32-23.07 96.12-23.07L96.12-23.07Q92.8-23.07 90.94-20.51 89.09-17.94 89.09-12.92ZM126.64-26.56L126.64-22.36Q125.61-22.53 124.41-22.53L124.41-22.53Q119.97-22.53 118.38-18.75L118.38-18.75 118.38 0 113.87 0 113.87-26.42 118.26-26.42 118.33-23.36Q120.56-26.9 124.63-26.9L124.63-26.9Q125.95-26.9 126.64-26.56L126.64-26.56ZM150.85 0L146.12 0Q145.73-0.78 145.48-2.78L145.48-2.78Q142.33 0.49 137.96 0.49L137.96 0.49Q134.06 0.49 131.56-1.72 129.05-3.93 129.05-7.32L129.05-7.32Q129.05-11.45 132.19-13.73 135.33-16.02 141.02-16.02L141.02-16.02 145.41-16.02 145.41-18.09Q145.41-20.46 143.99-21.86 142.58-23.27 139.82-23.27L139.82-23.27Q137.4-23.27 135.77-22.05 134.13-20.83 134.13-19.09L134.13-19.09 129.59-19.09Q129.59-21.07 130.99-22.91 132.4-24.76 134.8-25.83 137.21-26.9 140.09-26.9L140.09-26.9Q144.65-26.9 147.24-24.62 149.83-22.34 149.93-18.33L149.93-18.33 149.93-6.18Q149.93-2.54 150.85-0.39L150.85-0.39 150.85 0ZM138.62-3.44L138.62-3.44Q140.75-3.44 142.65-4.54 144.56-5.64 145.41-7.4L145.41-7.4 145.41-12.82 141.87-12.82Q133.57-12.82 133.57-7.96L133.57-7.96Q133.57-5.83 134.99-4.64 136.4-3.44 138.62-3.44ZM161.91-26.42L161.91 0 157.4 0 157.4-26.42 161.91-26.42ZM157.03-33.42L157.03-33.42Q157.03-34.52 157.7-35.28 158.37-36.04 159.69-36.04 161.01-36.04 161.69-35.28 162.38-34.52 162.38-33.42 162.38-32.32 161.69-31.59 161.01-30.86 159.69-30.86 158.37-30.86 157.7-31.59 157.03-32.32 157.03-33.42ZM184.52-7.01L184.52-7.01Q184.52-8.84 183.14-9.85 181.76-10.86 178.33-11.6 174.9-12.33 172.89-13.35 170.87-14.38 169.91-15.8 168.95-17.21 168.95-19.17L168.95-19.17Q168.95-22.41 171.69-24.66 174.44-26.9 178.71-26.9L178.71-26.9Q183.2-26.9 186-24.58 188.79-22.27 188.79-18.65L188.79-18.65 184.25-18.65Q184.25-20.51 182.68-21.85 181.1-23.19 178.71-23.19L178.71-23.19Q176.25-23.19 174.85-22.12 173.46-21.04 173.46-19.31L173.46-19.31Q173.46-17.68 174.76-16.85 176.05-16.02 179.43-15.26 182.81-14.5 184.91-13.45 187.01-12.4 188.02-10.93 189.04-9.45 189.04-7.32L189.04-7.32Q189.04-3.78 186.21-1.65 183.37 0.49 178.86 0.49L178.86 0.49Q175.68 0.49 173.24-0.63 170.8-1.76 169.42-3.77 168.04-5.79 168.04-8.13L168.04-8.13 172.56-8.13Q172.68-5.86 174.38-4.53 176.07-3.2 178.86-3.2L178.86-3.2Q181.42-3.2 182.97-4.24 184.52-5.27 184.52-7.01ZM205.88 0.49L205.88 0.49Q200.51 0.49 197.14-3.04 193.77-6.57 193.77-12.48L193.77-12.48 193.77-13.31Q193.77-17.24 195.28-20.32 196.78-23.41 199.48-25.16 202.17-26.9 205.32-26.9L205.32-26.9Q210.47-26.9 213.33-23.51 216.19-20.12 216.19-13.79L216.19-13.79 216.19-11.91 198.29-11.91Q198.39-8.01 200.57-5.6 202.76-3.2 206.13-3.2L206.13-3.2Q208.52-3.2 210.18-4.17 211.84-5.15 213.09-6.76L213.09-6.76 215.84-4.61Q212.52 0.49 205.88 0.49ZM205.32-23.19L205.32-23.19Q202.59-23.19 200.73-21.2 198.88-19.21 198.44-15.63L198.44-15.63 211.67-15.63 211.67-15.97Q211.47-19.41 209.81-21.3 208.15-23.19 205.32-23.19ZM250.9-26.42L257.18-6.23 262.26-26.42 266.77-26.42 259.08 0 255.42 0 249-20.02 242.75 0 239.09 0 231.42-26.42 235.91-26.42 241.11-6.64 247.27-26.42 250.9-26.42ZM276.27-26.42L276.27 0 271.75 0 271.75-26.42 276.27-26.42ZM271.39-33.42L271.39-33.42Q271.39-34.52 272.06-35.28 272.73-36.04 274.05-36.04 275.37-36.04 276.05-35.28 276.73-34.52 276.73-33.42 276.73-32.32 276.05-31.59 275.37-30.86 274.05-30.86 272.73-30.86 272.06-31.59 271.39-32.32 271.39-33.42ZM285.11-32.81L289.62-32.81 289.62-26.42 294.56-26.42 294.56-22.92 289.62-22.92 289.62-6.54Q289.62-4.96 290.28-4.16 290.94-3.37 292.53-3.37L292.53-3.37Q293.31-3.37 294.68-3.66L294.68-3.66 294.68 0Q292.9 0.49 291.21 0.49L291.21 0.49Q288.18 0.49 286.65-1.34 285.11-3.17 285.11-6.54L285.11-6.54 285.11-22.92 280.3-22.92 280.3-26.42 285.11-26.42 285.11-32.81ZM304.35-37.5L304.35-23.22Q307.35-26.9 312.16-26.9L312.16-26.9Q320.53-26.9 320.61-17.46L320.61-17.46 320.61 0 316.09 0 316.09-17.48Q316.06-20.34 314.78-21.7 313.5-23.07 310.79-23.07L310.79-23.07Q308.59-23.07 306.93-21.9 305.27-20.73 304.35-18.82L304.35-18.82 304.35 0 299.83 0 299.83-37.5 304.35-37.5ZM341.36-32.81L345.87-32.81 345.87-26.42 350.81-26.42 350.81-22.92 345.87-22.92 345.87-6.54Q345.87-4.96 346.53-4.16 347.19-3.37 348.78-3.37L348.78-3.37Q349.56-3.37 350.93-3.66L350.93-3.66 350.93 0Q349.15 0.49 347.46 0.49L347.46 0.49Q344.43 0.49 342.9-1.34 341.36-3.17 341.36-6.54L341.36-6.54 341.36-22.92 336.55-22.92 336.55-26.42 341.36-26.42 341.36-32.81ZM360.6-37.5L360.6-23.22Q363.6-26.9 368.41-26.9L368.41-26.9Q376.78-26.9 376.86-17.46L376.86-17.46 376.86 0 372.34 0 372.34-17.48Q372.31-20.34 371.03-21.7 369.75-23.07 367.04-23.07L367.04-23.07Q364.84-23.07 363.18-21.9 361.52-20.73 360.6-18.82L360.6-18.82 360.6 0 356.08 0 356.08-37.5 360.6-37.5ZM394.58 0.49L394.58 0.49Q389.21 0.49 385.84-3.04 382.47-6.57 382.47-12.48L382.47-12.48 382.47-13.31Q382.47-17.24 383.97-20.32 385.47-23.41 388.17-25.16 390.87-26.9 394.02-26.9L394.02-26.9Q399.17-26.9 402.03-23.51 404.88-20.12 404.88-13.79L404.88-13.79 404.88-11.91 386.99-11.91Q387.08-8.01 389.27-5.6 391.46-3.2 394.82-3.2L394.82-3.2Q397.22-3.2 398.88-4.17 400.54-5.15 401.78-6.76L401.78-6.76 404.54-4.61Q401.22 0.49 394.58 0.49ZM394.02-23.19L394.02-23.19Q391.28-23.19 389.43-21.2 387.57-19.21 387.13-15.63L387.13-15.63 400.37-15.63 400.37-15.97Q400.17-19.41 398.51-21.3 396.85-23.19 394.02-23.19ZM446.22 0L442.82-9.28 427.93-9.28 424.58 0 419.75 0 433.33-35.55 437.43-35.55 451.03 0 446.22 0ZM435.38-29.76L429.35-13.13 441.43-13.13 435.38-29.76ZM465.7-3.2L465.7-3.2Q468.12-3.2 469.92-4.66 471.73-6.13 471.92-8.33L471.92-8.33 476.2-8.33Q476.07-6.05 474.63-4 473.19-1.95 470.79-0.73 468.38 0.49 465.7 0.49L465.7 0.49Q460.3 0.49 457.12-3.11 453.93-6.71 453.93-12.96L453.93-12.96 453.93-13.72Q453.93-17.58 455.35-20.58 456.76-23.58 459.41-25.24 462.06-26.9 465.67-26.9L465.67-26.9Q470.12-26.9 473.06-24.24 476-21.58 476.2-17.33L476.2-17.33 471.92-17.33Q471.73-19.9 469.98-21.55 468.24-23.19 465.67-23.19L465.67-23.19Q462.23-23.19 460.34-20.72 458.45-18.24 458.45-13.55L458.45-13.55 458.45-12.7Q458.45-8.13 460.33-5.66 462.21-3.2 465.7-3.2ZM492.24 0.49L492.24 0.49Q486.87 0.49 483.5-3.04 480.13-6.57 480.13-12.48L480.13-12.48 480.13-13.31Q480.13-17.24 481.63-20.32 483.13-23.41 485.83-25.16 488.53-26.9 491.67-26.9L491.67-26.9Q496.83-26.9 499.68-23.51 502.54-20.12 502.54-13.79L502.54-13.79 502.54-11.91 484.64-11.91Q484.74-8.01 486.93-5.6 489.11-3.2 492.48-3.2L492.48-3.2Q494.87-3.2 496.53-4.17 498.19-5.15 499.44-6.76L499.44-6.76 502.2-4.61Q498.88 0.49 492.24 0.49ZM491.67-23.19L491.67-23.19Q488.94-23.19 487.08-21.2 485.23-19.21 484.79-15.63L484.79-15.63 498.02-15.63 498.02-15.97Q497.83-19.41 496.17-21.3 494.51-23.19 491.67-23.19Z" opacity="1" transform="matrix(1,0,0,1,0,0)" fill="#000000" class="slogan-text-1" data-fill-palette-color="secondary" id="text-1"></path></svg></g></svg></g></svg></g></svg></g><g transform="matrix(1,0,0,1,0,26.15132978228685)"><svg viewBox="0 0 214.48851839999995 214.48851839999995" height="214.48851839999995" width="214.48851839999995"><g><svg></svg></g><g id="icon-0"><svg viewBox="0 0 214.48851839999995 214.48851839999995" height="214.48851839999995" width="214.48851839999995"><g><rect width="195.02567135999996" height="195.02567135999996" x="9.731423519999993" y="9.731423519999993" fill="#000000" data-fill-palette-color="accent"></rect><rect width="195.02567135999996" height="195.02567135999996" x="19.46284703999999" y="-3.552713678800501e-15" fill="#000000" opacity="0.5" data-fill-palette-color="accent"></rect></g><g transform="matrix(1,0,0,1,39.15314648890141,27.80406719999999)"><svg viewBox="0 0 136.18222542219712 158.88038399999996" height="158.88038399999996" width="136.18222542219712"><g><svg xmlns="http://www.w3.org/2000/svg" xmlns:xlink="http://www.w3.org/1999/xlink" version="1.1" x="0" y="0" viewBox="19.63 14.567 60.741000000000014 70.86500000000001" enable-background="new 0 0 100 100" xml:space="preserve" height="158.88038399999996" width="136.18222542219712" class="icon-cg-0" data-fill-palette-color="quaternary" id="cg-0"><path fill="#ffffff" d="M50 14.567c0 0-30.37 23.621-30.37 48.931 0 7.454 6.045 13.497 13.497 13.497 6.632 0 12.137-4.788 13.271-11.094-0.435 5.404-1.858 14.867-6.522 19.531H50h10.124c-4.664-4.664-6.088-14.127-6.522-19.531 1.135 6.306 6.64 11.094 13.271 11.094 7.453 0 13.498-6.043 13.498-13.497C80.37 38.188 50 14.567 50 14.567z" data-fill-palette-color="quaternary"></path></svg></g></svg></g></svg></g></svg></g></svg></g><defs></defs></svg><rect width="395.52" height="168.5388656208251" fill="none" stroke="none" visibility="hidden"></rect></g></svg></g></svg>