<svg xmlns="http://www.w3.org/2000/svg" version="1.1" xmlns:xlink="http://www.w3.org/1999/xlink" xmlns:svgjs="http://svgjs.dev/svgjs" width="1500" height="1500" viewBox="0 0 1500 1500"><rect width="1500" height="1500" fill="#ffffff"></rect><g transform="matrix(0.6666666666666666,0,0,0.6666666666666666,249.39393939393938,642.1512279340875)"><svg viewBox="0 0 396 86" data-background-color="#161616" preserveAspectRatio="xMidYMid meet" height="325" width="1500" xmlns="http://www.w3.org/2000/svg" xmlns:xlink="http://www.w3.org/1999/xlink"><g id="tight-bounds" transform="matrix(1,0,0,1,0.2400000000000091,-0.19233354922243961)"><svg viewBox="0 0 395.52 86.38466709844487" height="86.38466709844487" width="395.52"><g><svg viewBox="0 0 514.0048791781815 112.26269309967532" height="86.38466709844487" width="395.52"><g transform="matrix(1,0,0,1,118.48487917818153,31.69767714741539)"><svg viewBox="0 0 395.52 48.867338804844536" height="48.867338804844536" width="395.52"><g id="textblocktransform"><svg viewBox="0 0 395.52 48.867338804844536" height="48.867338804844536" width="395.52" id="textblock"><g><svg viewBox="0 0 395.52 26.356707494646678" height="26.356707494646678" width="395.52"><g transform="matrix(1,0,0,1,0,0)"><svg width="395.52" viewBox="4.13 -37.5 565.33 37.99" height="26.356707494646678" data-palette-color="#ba9956"><g class="wordmark-text-0" data-fill-palette-color="primary" id="text-0"><path d="M24.22-20.26L24.22-16.43 8.81-16.43 8.81-3.83 26.71-3.83 26.71 0 4.13 0 4.13-35.55 26.46-35.55 26.46-31.69 8.81-31.69 8.81-20.26 24.22-20.26ZM30.73-13.09L30.73-13.43Q30.73-19.51 33.62-23.21 36.5-26.9 41.16-26.9L41.16-26.9Q45.8-26.9 48.51-23.73L48.51-23.73 48.51-37.5 53.02-37.5 53.02 0 48.87 0 48.65-2.83Q45.94 0.49 41.11 0.49L41.11 0.49Q36.52 0.49 33.63-3.27 30.73-7.03 30.73-13.09L30.73-13.09ZM35.25-12.92L35.25-12.92Q35.25-8.42 37.11-5.88 38.96-3.34 42.23-3.34L42.23-3.34Q46.53-3.34 48.51-7.2L48.51-7.2 48.51-19.34Q46.48-23.07 42.28-23.07L42.28-23.07Q38.96-23.07 37.11-20.51 35.25-17.94 35.25-12.92ZM60-26.42L64.28-26.42 64.4-23.49Q67.3-26.9 72.24-26.9L72.24-26.9Q77.78-26.9 79.78-22.66L79.78-22.66Q81.1-24.56 83.21-25.73 85.32-26.9 88.2-26.9L88.2-26.9Q96.89-26.9 97.04-17.7L97.04-17.7 97.04 0 92.52 0 92.52-17.43Q92.52-20.26 91.23-21.67 89.94-23.07 86.88-23.07L86.88-23.07Q84.37-23.07 82.71-21.57 81.05-20.07 80.78-17.53L80.78-17.53 80.78 0 76.24 0 76.24-17.31Q76.24-23.07 70.6-23.07L70.6-23.07Q66.16-23.07 64.52-19.29L64.52-19.29 64.52 0 60 0 60-26.42ZM102.65-13.13L102.65-13.45Q102.65-17.33 104.18-20.43 105.71-23.54 108.43-25.22 111.15-26.9 114.64-26.9L114.64-26.9Q120.04-26.9 123.37-23.17 126.7-19.43 126.7-13.23L126.7-13.23 126.7-12.92Q126.7-9.06 125.22-5.99 123.75-2.93 121-1.22 118.25 0.49 114.69 0.49L114.69 0.49Q109.32 0.49 105.99-3.25 102.65-6.98 102.65-13.13L102.65-13.13ZM107.19-12.92L107.19-12.92Q107.19-8.52 109.23-5.86 111.27-3.2 114.69-3.2L114.69-3.2Q118.13-3.2 120.16-5.9 122.18-8.59 122.18-13.45L122.18-13.45Q122.18-17.8 120.12-20.5 118.06-23.19 114.64-23.19L114.64-23.19Q111.3-23.19 109.25-20.53 107.19-17.87 107.19-12.92ZM132.36-26.42L136.64-26.42 136.78-23.1Q139.81-26.9 144.69-26.9L144.69-26.9Q153.07-26.9 153.14-17.46L153.14-17.46 153.14 0 148.62 0 148.62-17.48Q148.6-20.34 147.32-21.7 146.03-23.07 143.32-23.07L143.32-23.07Q141.13-23.07 139.47-21.9 137.81-20.73 136.88-18.82L136.88-18.82 136.88 0 132.36 0 132.36-26.42ZM161.56-32.81L166.08-32.81 166.08-26.42 171.01-26.42 171.01-22.92 166.08-22.92 166.08-6.54Q166.08-4.96 166.74-4.16 167.39-3.37 168.98-3.37L168.98-3.37Q169.76-3.37 171.13-3.66L171.13-3.66 171.13 0Q169.35 0.49 167.66 0.49L167.66 0.49Q164.64 0.49 163.1-1.34 161.56-3.17 161.56-6.54L161.56-6.54 161.56-22.92 156.75-22.92 156.75-26.42 161.56-26.42 161.56-32.81ZM175.08-13.13L175.08-13.45Q175.08-17.33 176.61-20.43 178.13-23.54 180.86-25.22 183.58-26.9 187.07-26.9L187.07-26.9Q192.47-26.9 195.8-23.17 199.13-19.43 199.13-13.23L199.13-13.23 199.13-12.92Q199.13-9.06 197.65-5.99 196.18-2.93 193.43-1.22 190.68 0.49 187.12 0.49L187.12 0.49Q181.75 0.49 178.42-3.25 175.08-6.98 175.08-13.13L175.08-13.13ZM179.62-12.92L179.62-12.92Q179.62-8.52 181.66-5.86 183.7-3.2 187.12-3.2L187.12-3.2Q190.56-3.2 192.59-5.9 194.61-8.59 194.61-13.45L194.61-13.45Q194.61-17.8 192.55-20.5 190.49-23.19 187.07-23.19L187.07-23.19Q183.73-23.19 181.67-20.53 179.62-17.87 179.62-12.92ZM204.79-26.42L209.06-26.42 209.21-23.1Q212.24-26.9 217.12-26.9L217.12-26.9Q225.5-26.9 225.57-17.46L225.57-17.46 225.57 0 221.05 0 221.05-17.48Q221.03-20.34 219.75-21.7 218.46-23.07 215.75-23.07L215.75-23.07Q213.56-23.07 211.9-21.9 210.24-20.73 209.31-18.82L209.31-18.82 209.31 0 204.79 0 204.79-26.42Z" fill="#000000" data-fill-palette-color="primary"></path><path d="M263.51-11.28L268.22-11.28Q267.56-5.64 264.06-2.58 260.55 0.49 254.74 0.49L254.74 0.49Q248.44 0.49 244.65-4.03 240.85-8.54 240.85-16.11L240.85-16.11 240.85-19.53Q240.85-24.49 242.62-28.25 244.39-32.01 247.64-34.02 250.88-36.04 255.16-36.04L255.16-36.04Q260.82-36.04 264.24-32.87 267.66-29.71 268.22-24.12L268.22-24.12 263.51-24.12Q262.9-28.37 260.86-30.27 258.82-32.18 255.16-32.18L255.16-32.18Q250.67-32.18 248.11-28.86 245.56-25.54 245.56-19.41L245.56-19.41 245.56-15.97Q245.56-10.18 247.98-6.76 250.4-3.34 254.74-3.34L254.74-3.34Q258.65-3.34 260.74-5.11 262.82-6.88 263.51-11.28L263.51-11.28ZM294.95 0L290.21 0Q289.82-0.78 289.58-2.78L289.58-2.78Q286.43 0.49 282.06 0.49L282.06 0.49Q278.15 0.49 275.65-1.72 273.15-3.93 273.15-7.32L273.15-7.32Q273.15-11.45 276.29-13.73 279.42-16.02 285.11-16.02L285.11-16.02 289.51-16.02 289.51-18.09Q289.51-20.46 288.09-21.86 286.67-23.27 283.91-23.27L283.91-23.27Q281.5-23.27 279.86-22.05 278.23-20.83 278.23-19.09L278.23-19.09 273.69-19.09Q273.69-21.07 275.09-22.91 276.49-24.76 278.9-25.83 281.3-26.9 284.18-26.9L284.18-26.9Q288.75-26.9 291.34-24.62 293.92-22.34 294.02-18.33L294.02-18.33 294.02-6.18Q294.02-2.54 294.95-0.39L294.95-0.39 294.95 0ZM282.72-3.44L282.72-3.44Q284.84-3.44 286.75-4.54 288.65-5.64 289.51-7.4L289.51-7.4 289.51-12.82 285.97-12.82Q277.66-12.82 277.66-7.96L277.66-7.96Q277.66-5.83 279.08-4.64 280.5-3.44 282.72-3.44ZM316.48-7.01L316.48-7.01Q316.48-8.84 315.1-9.85 313.72-10.86 310.29-11.6 306.86-12.33 304.85-13.35 302.83-14.38 301.87-15.8 300.9-17.21 300.9-19.17L300.9-19.17Q300.9-22.41 303.65-24.66 306.4-26.9 310.67-26.9L310.67-26.9Q315.16-26.9 317.96-24.58 320.75-22.27 320.75-18.65L320.75-18.65 316.21-18.65Q316.21-20.51 314.64-21.85 313.06-23.19 310.67-23.19L310.67-23.19Q308.2-23.19 306.81-22.12 305.42-21.04 305.42-19.31L305.42-19.31Q305.42-17.68 306.71-16.85 308.01-16.02 311.39-15.26 314.77-14.5 316.87-13.45 318.97-12.4 319.98-10.93 321-9.45 321-7.32L321-7.32Q321-3.78 318.17-1.65 315.33 0.49 310.82 0.49L310.82 0.49Q307.64 0.49 305.2-0.63 302.76-1.76 301.38-3.77 300-5.79 300-8.13L300-8.13 304.52-8.13Q304.64-5.86 306.34-4.53 308.03-3.2 310.82-3.2L310.82-3.2Q313.38-3.2 314.93-4.24 316.48-5.27 316.48-7.01ZM331.79-26.42L331.79 0 327.27 0 327.27-26.42 331.79-26.42ZM326.9-33.42L326.9-33.42Q326.9-34.52 327.57-35.28 328.25-36.04 329.56-36.04 330.88-36.04 331.57-35.28 332.25-34.52 332.25-33.42 332.25-32.32 331.57-31.59 330.88-30.86 329.56-30.86 328.25-30.86 327.57-31.59 326.9-32.32 326.9-33.42ZM339.01-26.42L343.28-26.42 343.43-23.1Q346.46-26.9 351.34-26.9L351.34-26.9Q359.71-26.9 359.79-17.46L359.79-17.46 359.79 0 355.27 0 355.27-17.48Q355.25-20.34 353.96-21.7 352.68-23.07 349.97-23.07L349.97-23.07Q347.77-23.07 346.11-21.9 344.45-20.73 343.53-18.82L343.53-18.82 343.53 0 339.01 0 339.01-26.42ZM365.4-13.13L365.4-13.45Q365.4-17.33 366.92-20.43 368.45-23.54 371.17-25.22 373.89-26.9 377.39-26.9L377.39-26.9Q382.78-26.9 386.11-23.17 389.45-19.43 389.45-13.23L389.45-13.23 389.45-12.92Q389.45-9.06 387.97-5.99 386.49-2.93 383.75-1.22 381 0.49 377.43 0.49L377.43 0.49Q372.06 0.49 368.73-3.25 365.4-6.98 365.4-13.13L365.4-13.13ZM369.94-12.92L369.94-12.92Q369.94-8.52 371.98-5.86 374.02-3.2 377.43-3.2L377.43-3.2Q380.88-3.2 382.9-5.9 384.93-8.59 384.93-13.45L384.93-13.45Q384.93-17.8 382.87-20.5 380.8-23.19 377.39-23.19L377.39-23.19Q374.04-23.19 371.99-20.53 369.94-17.87 369.94-12.92Z" fill="#000000" data-fill-palette-color="secondary"></path><path d="M428.97 0L425.58-9.28 410.69-9.28 407.34 0 402.51 0 416.08-35.55 420.18-35.55 433.78 0 428.97 0ZM418.13-29.76L412.1-13.13 424.19-13.13 418.13-29.76ZM436.76-13.09L436.76-13.43Q436.76-19.51 439.64-23.21 442.52-26.9 447.18-26.9L447.18-26.9Q451.82-26.9 454.53-23.73L454.53-23.73 454.53-37.5 459.05-37.5 459.05 0 454.9 0 454.68-2.83Q451.97 0.49 447.14 0.49L447.14 0.49Q442.55 0.49 439.65-3.27 436.76-7.03 436.76-13.09L436.76-13.09ZM441.28-12.92L441.28-12.92Q441.28-8.42 443.13-5.88 444.99-3.34 448.26-3.34L448.26-3.34Q452.56-3.34 454.53-7.2L454.53-7.2 454.53-19.34Q452.51-23.07 448.31-23.07L448.31-23.07Q444.99-23.07 443.13-20.51 441.28-17.94 441.28-12.92ZM468.06-26.42L474.77-6.13 481.31-26.42 485.93-26.42 476.45 0 473.01 0 463.44-26.42 468.06-26.42ZM495.18-26.42L495.18 0 490.66 0 490.66-26.42 495.18-26.42ZM490.29-33.42L490.29-33.42Q490.29-34.52 490.97-35.28 491.64-36.04 492.96-36.04 494.27-36.04 494.96-35.28 495.64-34.52 495.64-33.42 495.64-32.32 494.96-31.59 494.27-30.86 492.96-30.86 491.64-30.86 490.97-31.59 490.29-32.32 490.29-33.42ZM517.78-7.01L517.78-7.01Q517.78-8.84 516.4-9.85 515.02-10.86 511.59-11.6 508.16-12.33 506.15-13.35 504.13-14.38 503.17-15.8 502.21-17.21 502.21-19.17L502.21-19.17Q502.21-22.41 504.95-24.66 507.7-26.9 511.97-26.9L511.97-26.9Q516.46-26.9 519.26-24.58 522.05-22.27 522.05-18.65L522.05-18.65 517.51-18.65Q517.51-20.51 515.94-21.85 514.36-23.19 511.97-23.19L511.97-23.19Q509.51-23.19 508.11-22.12 506.72-21.04 506.72-19.31L506.72-19.31Q506.72-17.68 508.02-16.85 509.31-16.02 512.69-15.26 516.07-14.5 518.17-13.45 520.27-12.4 521.29-10.93 522.3-9.45 522.3-7.32L522.3-7.32Q522.3-3.78 519.47-1.65 516.63 0.49 512.12 0.49L512.12 0.49Q508.94 0.49 506.5-0.63 504.06-1.76 502.68-3.77 501.3-5.79 501.3-8.13L501.3-8.13 505.82-8.13Q505.94-5.86 507.64-4.53 509.33-3.2 512.12-3.2L512.12-3.2Q514.68-3.2 516.23-4.24 517.78-5.27 517.78-7.01ZM526.98-13.13L526.98-13.45Q526.98-17.33 528.51-20.43 530.04-23.54 532.76-25.22 535.48-26.9 538.97-26.9L538.97-26.9Q544.37-26.9 547.7-23.17 551.03-19.43 551.03-13.23L551.03-13.23 551.03-12.92Q551.03-9.06 549.55-5.99 548.08-2.93 545.33-1.22 542.58 0.49 539.02 0.49L539.02 0.49Q533.65 0.49 530.32-3.25 526.98-6.98 526.98-13.13L526.98-13.13ZM531.52-12.92L531.52-12.92Q531.52-8.52 533.56-5.86 535.6-3.2 539.02-3.2L539.02-3.2Q542.46-3.2 544.49-5.9 546.52-8.59 546.52-13.45L546.52-13.45Q546.52-17.8 544.45-20.5 542.39-23.19 538.97-23.19L538.97-23.19Q535.63-23.19 533.58-20.53 531.52-17.87 531.52-12.92ZM569.46-26.56L569.46-22.36Q568.44-22.53 567.24-22.53L567.24-22.53Q562.8-22.53 561.21-18.75L561.21-18.75 561.21 0 556.69 0 556.69-26.42 561.09-26.42 561.16-23.36Q563.38-26.9 567.46-26.9L567.46-26.9Q568.78-26.9 569.46-26.56L569.46-26.56Z" fill="#000000" data-fill-palette-color="accent"></path></g></svg></g></svg></g><g transform="matrix(1,0,0,1,0,32.57889357315289)"><svg viewBox="0 0 395.52 16.288445231691647" height="16.288445231691647" width="395.52"><g transform="matrix(1,0,0,1,0,0)"><svg width="395.52" viewBox="4.13 -37.5 922.44 37.99" height="16.288445231691647" data-palette-color="#fff5d0"><path d="M23.73-19.53L23.73-15.7 8.81-15.7 8.81 0 4.13 0 4.13-35.55 26.15-35.55 26.15-31.69 8.81-31.69 8.81-19.53 23.73-19.53ZM67.12 0L67.02-2.61Q64.38 0.49 59.28 0.49L59.28 0.49Q55.06 0.49 52.85-1.97 50.64-4.42 50.61-9.23L50.61-9.23 50.61-26.42 55.13-26.42 55.13-9.35Q55.13-3.34 60.01-3.34L60.01-3.34Q65.19-3.34 66.9-7.2L66.9-7.2 66.9-26.42 71.41-26.42 71.41 0 67.12 0ZM98.46-26.42L102.74-26.42 102.88-23.1Q105.91-26.9 110.79-26.9L110.79-26.9Q119.17-26.9 119.24-17.46L119.24-17.46 119.24 0 114.72 0 114.72-17.48Q114.7-20.34 113.42-21.7 112.14-23.07 109.43-23.07L109.43-23.07Q107.23-23.07 105.57-21.9 103.91-20.73 102.98-18.82L102.98-18.82 102.98 0 98.46 0 98.46-26.42ZM145.15-13.09L145.15-13.43Q145.15-19.51 148.03-23.21 150.91-26.9 155.57-26.9L155.57-26.9Q160.21-26.9 162.92-23.73L162.92-23.73 162.92-37.5 167.44-37.5 167.44 0 163.29 0 163.07-2.83Q160.36 0.49 155.52 0.49L155.52 0.49Q150.93 0.49 148.04-3.27 145.15-7.03 145.15-13.09L145.15-13.09ZM149.66-12.92L149.66-12.92Q149.66-8.42 151.52-5.88 153.37-3.34 156.64-3.34L156.64-3.34Q160.94-3.34 162.92-7.2L162.92-7.2 162.92-19.34Q160.89-23.07 156.69-23.07L156.69-23.07Q153.37-23.07 151.52-20.51 149.66-17.94 149.66-12.92ZM207.4-26.56L207.4-22.36Q206.38-22.53 205.18-22.53L205.18-22.53Q200.74-22.53 199.15-18.75L199.15-18.75 199.15 0 194.63 0 194.63-26.42 199.03-26.42 199.1-23.36Q201.32-26.9 205.4-26.9L205.4-26.9Q206.72-26.9 207.4-26.56L207.4-26.56ZM251.81 0L247.08 0Q246.69-0.78 246.44-2.78L246.44-2.78Q243.29 0.49 238.92 0.49L238.92 0.49Q235.02 0.49 232.51-1.72 230.01-3.93 230.01-7.32L230.01-7.32Q230.01-11.45 233.15-13.73 236.29-16.02 241.97-16.02L241.97-16.02 246.37-16.02 246.37-18.09Q246.37-20.46 244.95-21.86 243.54-23.27 240.78-23.27L240.78-23.27Q238.36-23.27 236.73-22.05 235.09-20.83 235.09-19.09L235.09-19.09 230.55-19.09Q230.55-21.07 231.95-22.91 233.36-24.76 235.76-25.83 238.17-26.9 241.05-26.9L241.05-26.9Q245.61-26.9 248.2-24.62 250.79-22.34 250.89-18.33L250.89-18.33 250.89-6.18Q250.89-2.54 251.81-0.39L251.81-0.39 251.81 0ZM239.58-3.44L239.58-3.44Q241.71-3.44 243.61-4.54 245.51-5.64 246.37-7.4L246.37-7.4 246.37-12.82 242.83-12.82Q234.53-12.82 234.53-7.96L234.53-7.96Q234.53-5.83 235.94-4.64 237.36-3.44 239.58-3.44ZM283.06-26.42L283.06 0 278.55 0 278.55-26.42 283.06-26.42ZM278.18-33.42L278.18-33.42Q278.18-34.52 278.85-35.28 279.52-36.04 280.84-36.04 282.16-36.04 282.85-35.28 283.53-34.52 283.53-33.42 283.53-32.32 282.85-31.59 282.16-30.86 280.84-30.86 279.52-30.86 278.85-31.59 278.18-32.32 278.18-33.42ZM325.86-7.01L325.86-7.01Q325.86-8.84 324.48-9.85 323.11-10.86 319.68-11.6 316.24-12.33 314.23-13.35 312.22-14.38 311.25-15.8 310.29-17.21 310.29-19.17L310.29-19.17Q310.29-22.41 313.03-24.66 315.78-26.9 320.05-26.9L320.05-26.9Q324.55-26.9 327.34-24.58 330.14-22.27 330.14-18.65L330.14-18.65 325.6-18.65Q325.6-20.51 324.02-21.85 322.45-23.19 320.05-23.19L320.05-23.19Q317.59-23.19 316.2-22.12 314.8-21.04 314.8-19.31L314.8-19.31Q314.8-17.68 316.1-16.85 317.39-16.02 320.77-15.26 324.16-14.5 326.25-13.45 328.35-12.4 329.37-10.93 330.38-9.45 330.38-7.32L330.38-7.32Q330.38-3.78 327.55-1.65 324.72 0.49 320.2 0.49L320.2 0.49Q317.03 0.49 314.58-0.63 312.14-1.76 310.76-3.77 309.38-5.79 309.38-8.13L309.38-8.13 313.9-8.13Q314.02-5.86 315.72-4.53 317.42-3.2 320.2-3.2L320.2-3.2Q322.76-3.2 324.31-4.24 325.86-5.27 325.86-7.01ZM367.42 0.49L367.42 0.49Q362.05 0.49 358.68-3.04 355.31-6.57 355.31-12.48L355.31-12.48 355.31-13.31Q355.31-17.24 356.81-20.32 358.31-23.41 361.01-25.16 363.71-26.9 366.86-26.9L366.86-26.9Q372.01-26.9 374.86-23.51 377.72-20.12 377.72-13.79L377.72-13.79 377.72-11.91 359.83-11.91Q359.92-8.01 362.11-5.6 364.29-3.2 367.66-3.2L367.66-3.2Q370.05-3.2 371.71-4.17 373.38-5.15 374.62-6.76L374.62-6.76 377.38-4.61Q374.06 0.49 367.42 0.49ZM366.86-23.19L366.86-23.19Q364.12-23.19 362.27-21.2 360.41-19.21 359.97-15.63L359.97-15.63 373.2-15.63 373.2-15.97Q373.01-19.41 371.35-21.3 369.69-23.19 366.86-23.19ZM452.82-26.42L459.1-6.23 464.17-26.42 468.69-26.42 461 0 457.34 0 450.92-20.02 444.67 0 441 0 433.34-26.42 437.83-26.42 443.03-6.64 449.18-26.42 452.82-26.42ZM498.38-26.42L498.38 0 493.86 0 493.86-26.42 498.38-26.42ZM493.5-33.42L493.5-33.42Q493.5-34.52 494.17-35.28 494.84-36.04 496.16-36.04 497.48-36.04 498.16-35.28 498.84-34.52 498.84-33.42 498.84-32.32 498.16-31.59 497.48-30.86 496.16-30.86 494.84-30.86 494.17-31.59 493.5-32.32 493.5-33.42ZM527.41-32.81L531.93-32.81 531.93-26.42 536.86-26.42 536.86-22.92 531.93-22.92 531.93-6.54Q531.93-4.96 532.58-4.16 533.24-3.37 534.83-3.37L534.83-3.37Q535.61-3.37 536.98-3.66L536.98-3.66 536.98 0Q535.2 0.49 533.51 0.49L533.51 0.49Q530.49 0.49 528.95-1.34 527.41-3.17 527.41-6.54L527.41-6.54 527.41-22.92 522.6-22.92 522.6-26.42 527.41-26.42 527.41-32.81ZM566.84-37.5L566.84-23.22Q569.84-26.9 574.65-26.9L574.65-26.9Q583.03-26.9 583.1-17.46L583.1-17.46 583.1 0 578.58 0 578.58-17.48Q578.56-20.34 577.28-21.7 575.99-23.07 573.28-23.07L573.28-23.07Q571.09-23.07 569.43-21.9 567.77-20.73 566.84-18.82L566.84-18.82 566.84 0 562.32 0 562.32-37.5 566.84-37.5ZM644.23-32.81L648.75-32.81 648.75-26.42 653.68-26.42 653.68-22.92 648.75-22.92 648.75-6.54Q648.75-4.96 649.41-4.16 650.07-3.37 651.66-3.37L651.66-3.37Q652.44-3.37 653.8-3.66L653.8-3.66 653.8 0Q652.02 0.49 650.34 0.49L650.34 0.49Q647.31 0.49 645.77-1.34 644.23-3.17 644.23-6.54L644.23-6.54 644.23-22.92 639.42-22.92 639.42-26.42 644.23-26.42 644.23-32.81ZM683.66-37.5L683.66-23.22Q686.67-26.9 691.48-26.9L691.48-26.9Q699.85-26.9 699.92-17.46L699.92-17.46 699.92 0 695.41 0 695.41-17.48Q695.38-20.34 694.1-21.7 692.82-23.07 690.11-23.07L690.11-23.07Q687.91-23.07 686.25-21.9 684.59-20.73 683.66-18.82L683.66-18.82 683.66 0 679.15 0 679.15-37.5 683.66-37.5ZM737.84 0.49L737.84 0.49Q732.47 0.49 729.1-3.04 725.73-6.57 725.73-12.48L725.73-12.48 725.73-13.31Q725.73-17.24 727.23-20.32 728.73-23.41 731.43-25.16 734.13-26.9 737.28-26.9L737.28-26.9Q742.43-26.9 745.29-23.51 748.14-20.12 748.14-13.79L748.14-13.79 748.14-11.91 730.25-11.91Q730.35-8.01 732.53-5.6 734.72-3.2 738.08-3.2L738.08-3.2Q740.48-3.2 742.14-4.17 743.8-5.15 745.04-6.76L745.04-6.76 747.8-4.61Q744.48 0.49 737.84 0.49ZM737.28-23.19L737.28-23.19Q734.54-23.19 732.69-21.2 730.83-19.21 730.39-15.63L730.39-15.63 743.63-15.63 743.63-15.97Q743.43-19.41 741.77-21.3 740.11-23.19 737.28-23.19ZM829.86 0L826.47-9.28 811.57-9.28 808.23 0 803.4 0 816.97-35.55 821.07-35.55 834.67 0 829.86 0ZM819.02-29.76L812.99-13.13 825.07-13.13 819.02-29.76ZM869.53-3.2L869.53-3.2Q871.95-3.2 873.76-4.66 875.56-6.13 875.76-8.33L875.76-8.33 880.03-8.33Q879.91-6.05 878.47-4 877.03-1.95 874.62-0.73 872.22 0.49 869.53 0.49L869.53 0.49Q864.14 0.49 860.95-3.11 857.77-6.71 857.77-12.96L857.77-12.96 857.77-13.72Q857.77-17.58 859.18-20.58 860.6-23.58 863.25-25.24 865.9-26.9 869.51-26.9L869.51-26.9Q873.95-26.9 876.89-24.24 879.84-21.58 880.03-17.33L880.03-17.33 875.76-17.33Q875.56-19.9 873.82-21.55 872.07-23.19 869.51-23.19L869.51-23.19Q866.07-23.19 864.18-20.72 862.28-18.24 862.28-13.55L862.28-13.55 862.28-12.7Q862.28-8.13 864.16-5.66 866.04-3.2 869.53-3.2ZM916.26 0.49L916.26 0.49Q910.89 0.49 907.52-3.04 904.15-6.57 904.15-12.48L904.15-12.48 904.15-13.31Q904.15-17.24 905.66-20.32 907.16-23.41 909.86-25.16 912.55-26.9 915.7-26.9L915.7-26.9Q920.85-26.9 923.71-23.51 926.57-20.12 926.57-13.79L926.57-13.79 926.57-11.91 908.67-11.91Q908.77-8.01 910.95-5.6 913.14-3.2 916.51-3.2L916.51-3.2Q918.9-3.2 920.56-4.17 922.22-5.15 923.47-6.76L923.47-6.76 926.22-4.61Q922.9 0.49 916.26 0.49ZM915.7-23.19L915.7-23.19Q912.97-23.19 911.11-21.2 909.26-19.21 908.82-15.63L908.82-15.63 922.05-15.63 922.05-15.97Q921.85-19.41 920.19-21.3 918.53-23.19 915.7-23.19Z" opacity="1" transform="matrix(1,0,0,1,0,0)" fill="#000000" class="slogan-text-1" data-fill-palette-color="secondary" id="text-1"></path></svg></g></svg></g></svg></g></svg></g><g><svg viewBox="0 0 112.26269309967532 112.26269309967532" height="112.26269309967532" width="112.26269309967532"><g><svg></svg></g><g id="icon-0"><svg viewBox="0 0 112.26269309967532 112.26269309967532" height="112.26269309967532" width="112.26269309967532"><g><rect width="102.07589317026033" height="102.07589317026033" x="5.093399964707494" y="5.093399964707494" fill="#000000" data-fill-palette-color="accent"></rect><rect width="102.07589317026033" height="102.07589317026033" x="10.186799929414985" y="3.552713678800501e-15" fill="#000000" opacity="0.5" data-fill-palette-color="accent"></rect></g><g transform="matrix(1,0,0,1,20.4926478161088,14.552571327735691)"><svg viewBox="0 0 71.27739746745772 83.15755044420393" height="83.15755044420393" width="71.27739746745772"><g><svg xmlns="http://www.w3.org/2000/svg" xmlns:xlink="http://www.w3.org/1999/xlink" version="1.1" x="0" y="0" viewBox="19.63 14.567 60.741000000000014 70.86500000000001" enable-background="new 0 0 100 100" xml:space="preserve" height="83.15755044420393" width="71.27739746745772" class="icon-cg-0" data-fill-palette-color="quaternary" id="cg-0"><path fill="#ffffff" d="M50 14.567c0 0-30.37 23.621-30.37 48.931 0 7.454 6.045 13.497 13.497 13.497 6.632 0 12.137-4.788 13.271-11.094-0.435 5.404-1.858 14.867-6.522 19.531H50h10.124c-4.664-4.664-6.088-14.127-6.522-19.531 1.135 6.306 6.64 11.094 13.271 11.094 7.453 0 13.498-6.043 13.498-13.497C80.37 38.188 50 14.567 50 14.567z" data-fill-palette-color="quaternary"></path></svg></g></svg></g></svg></g></svg></g></svg></g><defs></defs></svg><rect width="395.52" height="86.38466709844487" fill="none" stroke="none" visibility="hidden"></rect></g></svg></g></svg>