<svg xmlns="http://www.w3.org/2000/svg" version="1.1" xmlns:xlink="http://www.w3.org/1999/xlink" xmlns:svgjs="http://svgjs.dev/svgjs" width="1500" height="318" viewBox="0 0 1500 318"><g transform="matrix(1,0,0,1,-0.9090909090909918,0.28488282943945364)"><svg viewBox="0 0 396 84" data-background-color="#161616" preserveAspectRatio="xMidYMid meet" height="318" width="1500" xmlns="http://www.w3.org/2000/svg" xmlns:xlink="http://www.w3.org/1999/xlink"><g id="tight-bounds" transform="matrix(1,0,0,1,0.2400000000000091,-0.0752520681538158)"><svg viewBox="0 0 395.52 84.15050413630763" height="84.15050413630763" width="395.52"><g><svg viewBox="0 0 510.05314164608114 108.51847948479282" height="84.15050413630763" width="395.52"><g transform="matrix(1,0,0,1,114.53314164608113,30.64048823577823)"><svg viewBox="0 0 395.52 47.23750301323636" height="47.23750301323636" width="395.52"><g id="textblocktransform"><svg viewBox="0 0 395.52 47.23750301323636" height="47.23750301323636" width="395.52" id="textblock"><g><svg viewBox="0 0 395.52 25.47765194805195" height="25.47765194805195" width="395.52"><g transform="matrix(1,0,0,1,0,0)"><svg width="395.52" viewBox="3.78 -33.48 524.02 34.11" height="25.47765194805195" data-palette-color="#ba9956"><g class="wordmark-text-0" data-fill-palette-color="primary" id="text-0"><path d="M7.88-31.95L7.88 0 3.78 0 3.78-31.95 7.88-31.95ZM23.7-3.48L23.7 0 5 0 5-3.48 23.7-3.48ZM23.18-18.03L23.18-14.58 6.13-14.58 6.13-18.03 23.18-18.03ZM23.55-31.95L23.55-28.48 4.98-28.48 4.98-31.95 23.55-31.95ZM37.5 0.53L37.5 0.53Q33.1 0.53 30.8-2.2 28.5-4.93 28.5-10.15L28.5-10.15 28.5-14.18Q28.5-19.43 30.82-22.19 33.15-24.95 37.67-24.95L37.67-24.95Q39.92-24.95 41.57-24.19 43.22-23.43 44.25-22.05 45.27-20.68 45.62-18.8L45.62-18.8 46.95-18.8 45.75-15.08Q45.67-17.23 44.78-18.69 43.9-20.15 42.39-20.9 40.87-21.65 38.92-21.65L38.92-21.65Q35.82-21.65 34.19-19.85 32.55-18.05 32.55-14.55L32.55-14.55 32.55-9.9Q32.55-6.45 34.19-4.65 35.82-2.85 38.92-2.85L38.92-2.85Q40.77-2.85 42.2-3.56 43.62-4.28 44.56-5.54 45.5-6.8 45.85-8.4L45.85-8.4 46.85-5.5 45.65-5.5Q45.3-3.85 44.31-2.48 43.32-1.1 41.66-0.29 40 0.53 37.5 0.53ZM49.7-33.13L49.7 0 45.65 0 45.82-5.9 45.75-7.2 45.75-17.4 45.77-18.25 45.67-25.18 45.67-33.13 49.7-33.13ZM90.82-15.73L90.82 0 86.77 0 86.77-15.28Q86.77-17.2 86.28-18.61 85.8-20.03 84.68-20.8 83.57-21.58 81.7-21.58L81.7-21.58Q79.92-21.58 78.62-20.85 77.32-20.13 76.52-18.91 75.72-17.7 75.4-16.15L75.4-16.15 74.77-19.03 75.27-19.03Q75.67-20.6 76.62-21.95 77.57-23.3 79.2-24.13 80.82-24.95 83.22-24.95L83.22-24.95Q85.95-24.95 87.61-23.88 89.27-22.8 90.05-20.74 90.82-18.68 90.82-15.73L90.82-15.73ZM60.35-18.3L60.35 0 56.3 0 56.3-24.4 60.35-24.4 60.17-18.55 60.35-18.3ZM75.57-15.85L75.57 0 71.55 0 71.55-15.28Q71.55-17.2 71.06-18.61 70.57-20.03 69.47-20.8 68.37-21.58 66.5-21.58L66.5-21.58Q64.7-21.58 63.4-20.85 62.1-20.13 61.3-18.89 60.5-17.65 60.17-16.07L60.17-16.07 59.42-18.95 60.32-18.95Q60.7-20.6 61.62-21.96 62.55-23.33 64.13-24.14 65.72-24.95 68-24.95L68-24.95Q71.37-24.95 73.13-23.2 74.9-21.45 75.34-18.1L75.34-18.1Q75.47-17.6 75.52-17.01 75.57-16.43 75.57-15.85L75.57-15.85ZM106.79 0.63L106.79 0.63Q101.54 0.63 98.83-2.21 96.12-5.05 96.12-10.38L96.12-10.38 96.12-14.1Q96.12-19.4 98.84-22.23 101.57-25.05 106.79-25.05L106.79-25.05Q112.04-25.05 114.76-22.23 117.47-19.4 117.47-14.1L117.47-14.1 117.47-10.38Q117.47-5.05 114.76-2.21 112.04 0.63 106.79 0.63ZM106.79-2.68L106.79-2.68Q110.04-2.68 111.73-4.6 113.42-6.53 113.42-10.15L113.42-10.15 113.42-14.33Q113.42-17.93 111.73-19.84 110.04-21.75 106.79-21.75L106.79-21.75Q103.57-21.75 101.87-19.84 100.17-17.93 100.17-14.33L100.17-14.33 100.17-10.15Q100.17-6.53 101.87-4.6 103.57-2.68 106.79-2.68ZM143.47-15.63L143.47 0 139.42 0 139.42-15.18Q139.42-17.15 138.88-18.57 138.34-20 137.13-20.79 135.92-21.58 133.82-21.58L133.82-21.58Q131.89-21.58 130.48-20.85 129.07-20.13 128.19-18.89 127.32-17.65 126.97-16.07L126.97-16.07 126.24-18.95 127.12-18.95Q127.52-20.6 128.52-21.96 129.52-23.33 131.2-24.14 132.89-24.95 135.34-24.95L135.34-24.95Q138.24-24.95 140.03-23.85 141.82-22.75 142.64-20.69 143.47-18.63 143.47-15.63L143.47-15.63ZM127.14-18.32L127.14 0 123.09 0 123.09-24.4 127.14-24.4 126.97-18.55 127.14-18.32ZM158.61 0.5L158.61 0.5Q155.79 0.5 154.06-0.35 152.34-1.2 151.56-2.93 150.79-4.65 150.79-7.23L150.79-7.23 150.79-22.63 154.79-22.63 154.79-7.7Q154.79-5.3 155.89-4.16 156.99-3.03 159.59-3.03L159.59-3.03Q161.06-3.03 162.43-3.35 163.79-3.68 164.99-4.28L164.99-4.28 164.61-0.8Q163.44-0.2 161.86 0.15 160.29 0.5 158.61 0.5ZM164.74-24.05L164.36-20.8 146.79-20.8 146.79-24.05 164.74-24.05ZM154.86-31.03L154.69-23.65 150.81-23.65 150.79-30.5 154.86-31.03ZM179.21 0.63L179.21 0.63Q173.96 0.63 171.25-2.21 168.54-5.05 168.54-10.38L168.54-10.38 168.54-14.1Q168.54-19.4 171.26-22.23 173.99-25.05 179.21-25.05L179.21-25.05Q184.46-25.05 187.17-22.23 189.89-19.4 189.89-14.1L189.89-14.1 189.89-10.38Q189.89-5.05 187.17-2.21 184.46 0.63 179.21 0.63ZM179.21-2.68L179.21-2.68Q182.46-2.68 184.15-4.6 185.84-6.53 185.84-10.15L185.84-10.15 185.84-14.33Q185.84-17.93 184.15-19.84 182.46-21.75 179.21-21.75L179.21-21.75Q175.99-21.75 174.29-19.84 172.59-17.93 172.59-14.33L172.59-14.33 172.59-10.15Q172.59-6.53 174.29-4.6 175.99-2.68 179.21-2.68ZM215.88-15.63L215.88 0 211.83 0 211.83-15.18Q211.83-17.15 211.3-18.57 210.76-20 209.55-20.79 208.33-21.58 206.23-21.58L206.23-21.58Q204.31-21.58 202.9-20.85 201.48-20.13 200.61-18.89 199.73-17.65 199.38-16.07L199.38-16.07 198.66-18.95 199.53-18.95Q199.93-20.6 200.93-21.96 201.93-23.33 203.62-24.14 205.31-24.95 207.76-24.95L207.76-24.95Q210.66-24.95 212.45-23.85 214.23-22.75 215.06-20.69 215.88-18.63 215.88-15.63L215.88-15.63ZM199.56-18.32L199.56 0 195.51 0 195.51-24.4 199.56-24.4 199.38-18.55 199.56-18.32Z" fill="#ba9956" data-fill-palette-color="primary"></path><path d="M240.95 0.58L240.95 0.58Q235.03 0.58 232.07-2.75 229.1-6.08 229.1-12.2L229.1-12.2 229.1-19.78Q229.1-25.9 232.05-29.21 235-32.52 240.9-32.52L240.9-32.52Q242.8-32.52 244.36-32.18 245.93-31.83 247.15-31.28 248.38-30.73 249.23-30.13L249.23-30.13 249.58-26.28Q248.1-27.33 246.11-28.11 244.13-28.9 241.45-28.9L241.45-28.9Q237.43-28.9 235.38-26.51 233.33-24.13 233.33-19.73L233.33-19.73 233.33-12.35Q233.33-7.98 235.4-5.56 237.48-3.15 241.6-3.15L241.6-3.15Q244.25-3.15 246.29-3.93 248.33-4.7 249.83-5.83L249.83-5.83 249.48-1.88Q248.63-1.28 247.38-0.7 246.13-0.13 244.51 0.23 242.9 0.58 240.95 0.58ZM273.68-15.8L273.68 0 269.65 0 269.83-5.93 269.68-6.55 269.68-14.33 269.7-15.75Q269.7-18.73 268.19-20.15 266.68-21.58 263.4-21.58L263.4-21.58Q260.78-21.58 258.59-20.83 256.4-20.08 254.7-19.07L254.7-19.07 255.08-22.53Q256.03-23.1 257.34-23.66 258.65-24.23 260.34-24.6 262.03-24.98 264.05-24.98L264.05-24.98Q266.68-24.98 268.51-24.34 270.35-23.7 271.49-22.5 272.63-21.3 273.15-19.6 273.68-17.9 273.68-15.8L273.68-15.8ZM261.25 0.53L261.25 0.53Q257.63 0.53 255.69-1.24 253.75-3 253.75-6.28L253.75-6.28 253.75-7Q253.75-10.38 255.84-12.04 257.93-13.7 262.48-14.35L262.48-14.35 270.2-15.45 270.43-12.5 262.98-11.43Q260.18-11.03 258.98-10.06 257.78-9.1 257.78-7.23L257.78-7.23 257.78-6.83Q257.78-4.9 258.96-3.88 260.15-2.85 262.53-2.85L262.53-2.85Q264.63-2.85 266.13-3.58 267.63-4.3 268.55-5.53 269.48-6.75 269.8-8.25L269.8-8.25 270.43-5.5 269.65-5.5Q269.3-3.9 268.34-2.53 267.38-1.15 265.65-0.31 263.93 0.53 261.25 0.53ZM287.5 0.55L287.5 0.55Q284.55 0.55 282.35-0.09 280.15-0.73 278.7-1.48L278.7-1.48 278.32-5.23Q280.15-4.28 282.34-3.58 284.52-2.88 287.3-2.88L287.3-2.88Q290.12-2.88 291.55-3.78 292.97-4.67 292.97-6.45L292.97-6.45 292.97-6.73Q292.97-7.88 292.44-8.63 291.9-9.38 290.5-9.95 289.1-10.53 286.52-11.1L286.52-11.1Q283.45-11.78 281.67-12.69 279.9-13.6 279.14-14.95 278.37-16.3 278.37-18.25L278.37-18.25 278.37-18.48Q278.37-21.68 280.6-23.33 282.82-24.98 287.3-24.98L287.3-24.98Q290.17-24.98 292.29-24.33 294.4-23.68 295.75-22.88L295.75-22.88 296.12-19.45Q294.5-20.4 292.4-21.03 290.3-21.65 287.67-21.65L287.67-21.65Q285.77-21.65 284.6-21.26 283.42-20.88 282.9-20.16 282.37-19.45 282.37-18.45L282.37-18.45 282.37-18.25Q282.37-17.15 282.9-16.39 283.42-15.63 284.79-15.06 286.15-14.5 288.57-13.98L288.57-13.98Q291.7-13.35 293.54-12.48 295.37-11.6 296.17-10.26 296.97-8.93 296.97-6.83L296.97-6.83 296.97-6.4Q296.97-2.95 294.57-1.2 292.17 0.55 287.5 0.55ZM306.05-24.4L306.05 0 302 0 302-24.4 306.05-24.4ZM304.02-28.4L304.02-28.4Q302.77-28.4 302.16-29.06 301.55-29.73 301.55-30.88L301.55-30.88 301.55-31Q301.55-32.18 302.16-32.83 302.77-33.48 304.02-33.48L304.02-33.48Q305.27-33.48 305.9-32.83 306.52-32.18 306.52-31L306.52-31 306.52-30.88Q306.52-29.7 305.9-29.05 305.27-28.4 304.02-28.4ZM333.12-15.63L333.12 0 329.07 0 329.07-15.18Q329.07-17.15 328.53-18.57 327.99-20 326.78-20.79 325.57-21.58 323.47-21.58L323.47-21.58Q321.54-21.58 320.13-20.85 318.72-20.13 317.84-18.89 316.97-17.65 316.62-16.07L316.62-16.07 315.89-18.95 316.77-18.95Q317.17-20.6 318.17-21.96 319.17-23.33 320.86-24.14 322.54-24.95 324.99-24.95L324.99-24.95Q327.89-24.95 329.68-23.85 331.47-22.75 332.29-20.69 333.12-18.63 333.12-15.63L333.12-15.63ZM316.79-18.32L316.79 0 312.74 0 312.74-24.4 316.79-24.4 316.62-18.55 316.79-18.32ZM349.09 0.63L349.09 0.63Q343.84 0.63 341.13-2.21 338.42-5.05 338.42-10.38L338.42-10.38 338.42-14.1Q338.42-19.4 341.14-22.23 343.87-25.05 349.09-25.05L349.09-25.05Q354.34-25.05 357.05-22.23 359.77-19.4 359.77-14.1L359.77-14.1 359.77-10.38Q359.77-5.05 357.05-2.21 354.34 0.63 349.09 0.63ZM349.09-2.68L349.09-2.68Q352.34-2.68 354.03-4.6 355.72-6.53 355.72-10.15L355.72-10.15 355.72-14.33Q355.72-17.93 354.03-19.84 352.34-21.75 349.09-21.75L349.09-21.75Q345.87-21.75 344.17-19.84 342.47-17.93 342.47-14.33L342.47-14.33 342.47-10.15Q342.47-6.53 344.17-4.6 345.87-2.68 349.09-2.68Z" fill="#fff5d0" data-fill-palette-color="secondary"></path><path d="M384.59-29.15L375.82 0 371.62 0 381.62-31.95 388.17-31.95 398.19 0 393.99 0 385.22-29.15 384.59-29.15ZM392.17-12.88L392.17-9.43 377.62-9.43 377.62-12.88 392.17-12.88ZM410.77 0.53L410.77 0.53Q406.37 0.53 404.07-2.2 401.77-4.93 401.77-10.15L401.77-10.15 401.77-14.18Q401.77-19.43 404.09-22.19 406.42-24.95 410.94-24.95L410.94-24.95Q413.19-24.95 414.84-24.19 416.49-23.43 417.52-22.05 418.54-20.68 418.89-18.8L418.89-18.8 420.22-18.8 419.02-15.08Q418.94-17.23 418.05-18.69 417.17-20.15 415.65-20.9 414.14-21.65 412.19-21.65L412.19-21.65Q409.09-21.65 407.45-19.85 405.82-18.05 405.82-14.55L405.82-14.55 405.82-9.9Q405.82-6.45 407.45-4.65 409.09-2.85 412.19-2.85L412.19-2.85Q414.04-2.85 415.47-3.56 416.89-4.28 417.83-5.54 418.77-6.8 419.12-8.4L419.12-8.4 420.12-5.5 418.92-5.5Q418.57-3.85 417.58-2.48 416.59-1.1 414.93-0.29 413.27 0.53 410.77 0.53ZM422.97-33.13L422.97 0 418.92 0 419.09-5.9 419.02-7.2 419.02-17.4 419.04-18.25 418.94-25.18 418.94-33.13 422.97-33.13ZM431.56-24.4L438.31-2.78 438.91-2.78 445.66-24.4 449.86-24.4 441.94 0 435.29 0 427.36-24.4 431.56-24.4ZM458.39-24.4L458.39 0 454.34 0 454.34-24.4 458.39-24.4ZM456.36-28.4L456.36-28.4Q455.11-28.4 454.5-29.06 453.89-29.73 453.89-30.88L453.89-30.88 453.89-31Q453.89-32.18 454.5-32.83 455.11-33.48 456.36-33.48L456.36-33.48Q457.61-33.48 458.24-32.83 458.86-32.18 458.86-31L458.86-31 458.86-30.88Q458.86-29.7 458.24-29.05 457.61-28.4 456.36-28.4ZM472.71 0.55L472.71 0.55Q469.76 0.55 467.56-0.09 465.36-0.73 463.91-1.48L463.91-1.48 463.53-5.23Q465.36-4.28 467.55-3.58 469.73-2.88 472.51-2.88L472.51-2.88Q475.33-2.88 476.76-3.78 478.18-4.67 478.18-6.45L478.18-6.45 478.18-6.73Q478.18-7.88 477.65-8.63 477.11-9.38 475.71-9.95 474.31-10.53 471.73-11.1L471.73-11.1Q468.66-11.78 466.88-12.69 465.11-13.6 464.35-14.95 463.58-16.3 463.58-18.25L463.58-18.25 463.58-18.48Q463.58-21.68 465.81-23.33 468.03-24.98 472.51-24.98L472.51-24.98Q475.38-24.98 477.5-24.33 479.61-23.68 480.96-22.88L480.96-22.88 481.33-19.45Q479.71-20.4 477.61-21.03 475.51-21.65 472.88-21.65L472.88-21.65Q470.98-21.65 469.81-21.26 468.63-20.88 468.11-20.16 467.58-19.45 467.58-18.45L467.58-18.45 467.58-18.25Q467.58-17.15 468.11-16.39 468.63-15.63 470-15.06 471.36-14.5 473.78-13.98L473.78-13.98Q476.91-13.35 478.75-12.48 480.58-11.6 481.38-10.26 482.18-8.93 482.18-6.83L482.18-6.83 482.18-6.4Q482.18-2.95 479.78-1.2 477.38 0.55 472.71 0.55ZM496.83 0.63L496.83 0.63Q491.58 0.63 488.87-2.21 486.16-5.05 486.16-10.38L486.16-10.38 486.16-14.1Q486.16-19.4 488.88-22.23 491.61-25.05 496.83-25.05L496.83-25.05Q502.08-25.05 504.79-22.23 507.51-19.4 507.51-14.1L507.51-14.1 507.51-10.38Q507.51-5.05 504.79-2.21 502.08 0.63 496.83 0.63ZM496.83-2.68L496.83-2.68Q500.08-2.68 501.77-4.6 503.46-6.53 503.46-10.15L503.46-10.15 503.46-14.33Q503.46-17.93 501.77-19.84 500.08-21.75 496.83-21.75L496.83-21.75Q493.61-21.75 491.91-19.84 490.21-17.93 490.21-14.33L490.21-14.33 490.21-10.15Q490.21-6.53 491.91-4.6 493.61-2.68 496.83-2.68ZM516.98-14.93L516.98-14.93 516.05-18.05 517.05-18.1Q517.85-21.2 519.8-22.99 521.75-24.78 524.98-24.78L524.98-24.78Q525.78-24.78 526.42-24.65 527.05-24.53 527.55-24.35L527.55-24.35 527.8-20.43Q527.18-20.63 526.42-20.75 525.65-20.88 524.73-20.88L524.73-20.88Q521.98-20.88 519.94-19.35 517.9-17.82 516.98-14.93ZM517.18-16.9L517.18 0 513.13 0 513.13-24.4 517.08-24.4 516.88-17.2 517.18-16.9Z" fill="#805d0d" data-fill-palette-color="accent"></path></g></svg></g></svg></g><g transform="matrix(1,0,0,1,0,31.492314109340263)"><svg viewBox="0 0 395.52 15.745188903896105" height="15.745188903896105" width="395.52"><g transform="matrix(1,0,0,1,0,0)"><svg width="395.52" viewBox="3.86 -35.28 894.78 35.620000000000005" height="15.745188903896105" data-palette-color="#fff5d0"><path d="M7.28-0.68L7.28-0.68Q3.86-0.68 3.86-3.96L3.86-3.96Q3.86-4.42 4.32-5.65 4.79-6.88 4.93-7.73 5.08-8.57 5.08-11.65L5.08-11.65 5.15-15.33 5.25-21.95Q5.25-28.15 4.64-29.98 4.03-31.81 4.03-31.96L4.03-31.96Q4.03-33.13 5.91-33.42L5.91-33.42Q12.13-34.4 21.02-34.4L21.02-34.4 21.75-34.4Q25.17-34.4 25.17-31.98L25.17-31.98 25.17-31.45Q25.17-29.86 23.51-29.86L23.51-29.86Q23.41-29.86 21.2-30.19 18.99-30.52 16-30.52 13.01-30.52 11.99-29.35 10.96-28.17 10.96-23.83L10.96-23.83Q10.96-21.63 11.65-20.61 12.33-19.58 14.77-19.58L14.77-19.58Q15.7-19.58 17.09-19.84 18.48-20.09 18.92-20.09L18.92-20.09Q20.29-20.09 21.07-19.19 21.85-18.29 21.85-16.77L21.85-16.77Q21.85-14.79 19.51-14.79L19.51-14.79 18.38-14.89Q17.63-14.94 16.58-14.94 15.53-14.94 14.01-14.36 12.5-13.77 11.94-12.96L11.94-12.96Q10.69-11.18 10.69-6.01L10.69-6.01 10.84-2.69Q10.84-1.83 9.89-1.26 8.94-0.68 7.28-0.68ZM53.45-21.9Q53.77-20.85 53.77-14.31 53.77-7.76 54.25-6.4L54.25-6.4Q55.28-3.52 57.92-3.52L57.92-3.52Q61.14-3.52 62.58-6.02 64.02-8.52 64.02-14.53L64.02-14.53 64.07-15.84 64.07-17.14Q64.07-18.46 63.89-19.82 63.7-21.19 63.7-21.34L63.7-21.34Q63.7-22.49 64.51-22.96 65.31-23.44 66.88-23.44 68.44-23.44 68.88-22.27L68.88-22.27Q69.17-21.48 69.17-14.51 69.17-7.54 69.93-4.42L69.93-4.42Q70.27-3.08 70.27-3.03L70.27-3.03 70.27-2.56Q70.27-1.93 69.53-1.39 68.78-0.85 67.41-0.85 66.05-0.85 64.78-1.45 63.51-2.05 63.23-2.05 62.95-2.05 60.65-1.17 58.36-0.29 56.57-0.29L56.57-0.29 55.94-0.29Q53.99-0.29 52.4-1.18 50.81-2.08 49.93-3.74L49.93-3.74Q48.64-6.2 48.64-14.21L48.64-14.21Q48.64-18.87 48.32-19.97L48.32-19.97Q48.3-20.07 48-20.85 47.71-21.63 47.71-21.95L47.71-21.95 47.71-22.49Q47.71-23.83 50.25-23.83L50.25-23.83 50.84-23.83Q52.86-23.83 53.45-21.9L53.45-21.9ZM97.5-0.71L97.5-0.71Q97.47-0.71 97.42-0.71L97.42-0.71Q94.62-0.71 94.62-2.64L94.62-2.64Q94.62-3.56 95.1-4.93 95.59-6.3 95.67-7.7 95.74-9.11 95.74-12.01L95.74-12.01 95.74-16.58 95.79-17.85Q95.84-19.12 95.84-19.65L95.84-19.65 95.59-22.17Q95.59-23.02 97.12-23.02 98.64-23.02 100.26-22.19 101.87-21.36 102.25-21.36 102.62-21.36 103.69-21.85 104.75-22.34 106.2-22.91 107.65-23.49 109.19-23.49L109.19-23.49 109.83-23.49Q111.66-23.49 113.09-22.5 114.51-21.51 115.16-19.76 115.81-18.02 116.08-13.35L116.08-13.35 116.15-12.01 116.2-10.67Q116.27-9.5 116.37-8.13 116.47-6.76 117.03-5.26 117.59-3.76 117.59-3.25L117.59-3.25Q117.59-1.07 114.27-1.07L114.27-1.07Q112.85-1.07 112.19-1.65 111.54-2.22 111.54-3.59L111.54-3.59 111.58-4.49Q111.58-13.99 110.22-17.43L110.22-17.43Q109.14-20.09 106.43-20.09L106.43-20.09Q105.14-20.09 103.91-19.45 102.67-18.8 101.99-17.36L101.99-17.36Q100.77-14.79 100.77-7.5L100.77-7.5 100.96-3.08Q100.96-2.03 99.96-1.37 98.96-0.71 97.5-0.71ZM156.78-16.38L156.78-16.38Q156.78-18.53 155.72-19.87 154.66-21.22 152.22-21.22L152.22-21.22 152-21.22 151.75-21.19Q149.21-21.19 147.56-18.79 145.92-16.38 145.92-12.16L145.92-12.16 145.92-11.04Q145.92-7.25 147.42-5.2 148.92-3.15 151.12-3.15L151.12-3.15 151.34-3.15Q153.9-3.15 155.32-4.93 156.73-6.71 156.73-10.03L156.73-10.03Q156.78-10.57 156.78-10.82L156.78-10.82 156.85-12.35 156.85-15.14 156.81-15.89Q156.78-16.14 156.78-16.38ZM152.56-24.17L152.56-24.17Q155.24-24.17 155.78-24.83L155.78-24.83Q156.61-25.85 156.61-29.2L156.61-29.2Q156.61-30.2 156.39-31.26 156.17-32.32 156.17-32.67L156.17-32.67Q156.17-33.76 157-34.52 157.83-35.28 159.42-35.28L159.42-35.28 159.88-35.28Q161.81-35.28 162.1-33.54L162.1-33.54Q162.32-32.3 162.32-19.85L162.32-19.85 162.27-16.92 162.27-12.84 162.32-10.6Q162.32-10.03 162.32-9.47L162.32-9.47 162.35-8.94Q162.37-8.4 162.37-6.99 162.37-5.59 162.77-4.26 163.18-2.93 163.18-2.39 163.18-1.86 162.57-1.34 161.96-0.83 160.77-0.83 159.59-0.83 158.36-1.16 157.12-1.49 156.66-1.49 156.19-1.49 154.13-0.78 152.07-0.07 150.53-0.07L150.53-0.07 149.99-0.07Q145.84-0.07 143.54-2.89 141.23-5.71 141.23-10.28L141.23-10.28 141.23-11.52Q141.23-13.92 142-16.32 142.77-18.73 144.23-20.51L144.23-20.51Q147.28-24.17 152.56-24.17ZM199.63-19.29L199.63-19.29Q197.34-19.29 196.07-17 194.8-14.72 194.8-10.03L194.8-10.03Q194.8-7.96 194.97-7.09 195.14-6.23 195.5-4.94 195.85-3.66 195.85-2.72 195.85-1.78 194.73-1 193.6-0.22 191.8-0.22L191.8-0.22 191.38-0.24 190.94-0.24Q189.77-0.24 189-0.9 188.23-1.56 188.23-2.39L188.23-2.39 188.23-2.78Q188.23-2.95 188.7-4.39 189.16-5.83 189.23-7.18 189.31-8.52 189.31-10.79L189.31-10.79 189.31-13.5 189.28-13.94Q189.28-14.38 189.28-14.82L189.28-14.82 189.23-16.14Q189.21-16.58 189.21-17.86 189.21-19.14 188.76-20.3 188.31-21.46 188.31-21.8L188.31-21.8Q188.31-23.27 190.87-23.27 193.43-23.27 194.58-21.88L194.58-21.88Q194.92-21.46 195.3-21.46 195.68-21.46 196.56-22.07L196.56-22.07Q199-23.73 200.66-23.73L200.66-23.73 201.05-23.73Q202.51-23.73 203.28-23.07 204.05-22.41 204.05-21.31L204.05-21.31Q204.05-19.14 201.64-19.14L201.64-19.14Q200.68-19.29 199.63-19.29ZM234.55-3.08L234.55-3.08 235.31-3.08Q237.58-3.08 239.31-5.03L239.31-5.03Q240.26-6.1 240.26-9.03L240.26-9.03 240.29-9.35 240.29-9.96Q240.29-11.79 238.78-11.79L238.78-11.79 237.99-11.79 236.72-11.69 236.07-11.62Q233.82-11.62 232.38-10.36 230.94-9.11 230.94-7.37L230.94-7.37 230.94-6.52Q230.94-5.2 231.88-4.14 232.82-3.08 234.55-3.08ZM246.9-1.9L246.9-1.9Q246.9-0.27 243.61-0.27L243.61-0.27Q243.02-0.27 241.47-0.87 239.92-1.46 239.52-1.46 239.12-1.46 236.87-0.62 234.62 0.22 232.92 0.22L232.92 0.22 232.35 0.22Q229.69 0.22 227.76-1.53 225.84-3.27 225.84-6.3L225.84-6.3Q225.84-12.45 233.62-13.96L233.62-13.96Q238.68-14.97 238.85-15.04L238.85-15.04Q240.04-15.65 240.04-17.25 240.04-18.85 239.03-19.93 238.02-21.02 236.27-21.02 234.53-21.02 232.16-19.84 229.79-18.65 228.91-18.65L228.91-18.65Q227.32-18.65 227.32-20.83L227.32-20.83Q227.32-22.19 229.83-23.41 232.33-24.63 235.53-24.63L235.53-24.63 236.75-24.63Q239.14-24.63 241-23.73 242.85-22.83 243.83-21.29L243.83-21.29Q245.22-19.12 245.22-11.35L245.22-11.35Q245.22-6.96 245.4-5.88 245.59-4.81 246.25-3.72 246.9-2.64 246.9-1.9ZM274.89-34.3L274.89-34.3 275.7-34.3Q276.74-34.3 277.5-33.67 278.26-33.03 278.26-31.81L278.26-31.81 278.26-31.2Q278.26-30.2 277.6-29.41 276.94-28.61 275.91-28.61L275.91-28.61 275.43-28.54 274.62-28.54Q274.33-28.61 273.89-28.61 273.45-28.61 272.85-29.21 272.25-29.81 272.25-30.54L272.25-30.54Q272.2-30.74 272.2-30.83L272.2-30.83 272.16-31.32 272.16-31.45 272.25-32.23Q272.25-32.79 272.89-33.54 273.52-34.3 274.89-34.3ZM275.28-0.07L275.28-0.07 274.04-0.07Q273.01-0.07 272.28-0.66 271.54-1.25 271.54-1.94 271.54-2.64 271.96-3.96 272.37-5.27 272.37-6.3L272.37-6.3 272.42-6.91 272.47-8.18 272.47-9.18 272.5-9.84 272.5-17.77Q272.4-19.09 272.08-20L272.08-20 271.86-20.46Q271.35-21.73 271.35-21.85L271.35-21.85 271.35-22.34Q271.35-23.75 274.28-23.75L274.28-23.75 275.16-23.75Q276.94-23.75 277.33-22.36L277.33-22.36Q277.43-22 277.43-18.09L277.43-18.09 277.43-12.55 277.48-10.94 277.58-9.06Q277.58-6.15 278.77-4.13L278.77-4.13Q279.26-3.3 279.26-2.28 279.26-1.27 278.11-0.67 276.96-0.07 275.28-0.07ZM305.73-13.28Q303.63-15.14 303.63-18.08 303.63-21.02 306.15-22.89 308.66-24.76 312.54-24.76 316.42-24.76 318.21-23.82 319.99-22.88 319.99-21.36L319.99-21.36Q319.99-19.29 318.65-19.29L318.65-19.29Q318.18-19.29 316.18-20.29 314.18-21.29 312.3-21.29 310.42-21.29 309.48-20.43 308.54-19.58 308.54-18.24 308.54-16.89 310.34-15.84L310.34-15.84Q310.96-15.48 314.31-14.15 317.67-12.82 319.04-11.62L319.04-11.62Q321.16-9.74 321.16-6.74 321.16-3.74 318.66-1.7 316.16 0.34 312.2 0.34L312.2 0.34Q305.49 0.34 303.87-2.27L303.87-2.27Q303.36-3.1 303.36-3.74L303.36-3.74Q303.36-5.86 304.68-5.86L304.68-5.86Q305.07-5.86 307.55-4.55 310.03-3.25 311.97-3.25 313.91-3.25 315.03-4.08 316.16-4.91 316.16-6.34 316.16-7.76 314.37-8.96L314.37-8.96Q313.64-9.45 310.34-10.78 307.05-12.11 305.73-13.28L305.73-13.28ZM356.54-14.38L356.54-14.38Q358.2-14.38 358.89-14.89 359.57-15.41 359.57-16.06L359.57-16.06 359.57-17.09Q359.57-18.85 358.28-20 356.98-21.14 355.44-21.14L355.44-21.14 354.81-21.14Q352.59-21.14 350.93-19.27 349.27-17.41 349.27-15.19L349.27-15.19 349.27-14.77Q349.27-13.92 350.83-13.92L350.83-13.92 351.39-13.92 351.54-13.94 353.37-14.06 354.59-14.16 355.42-14.26Q355.64-14.28 356.02-14.33 356.4-14.38 356.54-14.38ZM355.54 0.32L355.54 0.32 354.47 0.32Q349.58 0.32 346.63-2.98L346.63-2.98Q345.31-4.44 344.58-6.7 343.85-8.96 343.85-11.18L343.85-11.18 343.85-12.28Q343.85-14.5 344.77-16.94L344.77-16.94Q346.56-21.7 350.83-23.41L350.83-23.41Q353.03-24.32 355.49-24.32L355.49-24.32 356.03-24.32Q359.45-24.32 361.67-22.24L361.67-22.24Q362.94-21.04 363.59-19.37 364.23-17.7 364.23-16.36L364.23-16.36Q364.23-13.4 362.38-12.5L362.38-12.5Q361.11-11.89 356.58-11.35 352.05-10.82 351.61-10.69L351.61-10.69Q349.49-10.16 349.49-8.79L349.49-8.79Q349.49-6.42 351.66-4.83L351.66-4.83Q353.25-3.66 356.2-3.66L356.2-3.66Q357.32-3.66 359.84-4.37 362.35-5.08 362.6-5.08L362.6-5.08Q363.87-5.08 363.87-3.93L363.87-3.93Q363.87-2.49 361.14-1.09 358.42 0.32 355.54 0.32ZM436.36-13.84L436.36-13.84Q436.34-13.84 434.41-9.4 432.48-4.96 431.75-3.74L431.75-3.74Q430.31-1.34 428.82-1.34L428.82-1.34Q427.97-1.34 426.98-2.08 425.99-2.81 425.44-4.21 424.89-5.62 423.7-9.79 422.52-13.96 421.52-16.96 420.52-19.95 420.52-21.17L420.52-21.17Q420.52-23.39 422.15-23.39L422.15-23.39Q424.4-23.39 425.35-21.46L425.35-21.46Q425.38-21.41 427.21-14.49 429.04-7.57 430.19-7.57L430.19-7.57Q431.09-7.57 432.68-13.77L432.68-13.77Q433.14-15.55 433.48-18.37 433.82-21.19 433.95-21.48L433.95-21.48Q434.68-23.27 436.9-23.27 439.12-23.27 440.03-21.04L440.03-21.04Q440.39-20.14 440.68-18.09 440.98-16.04 441.69-13.38L441.69-13.38Q443.2-7.64 444.05-7.64L444.05-7.64Q445.03-7.64 446.84-13.87L446.84-13.87Q447.4-15.77 448-18.48 448.6-21.19 448.89-21.85L448.89-21.85Q449.6-23.41 451.2-23.41 452.79-23.41 452.79-21.34L452.79-21.34Q452.79-20.56 451.9-17.69 451.01-14.82 449.57-9.89 448.13-4.96 447.62-3.86 447.11-2.76 446.15-2.01 445.2-1.27 444.4-1.27L444.4-1.27Q442.96-1.27 441.94-2.78 440.93-4.3 438.79-9.07 436.66-13.84 436.36-13.84ZM480.58-34.3L480.58-34.3 481.39-34.3Q482.44-34.3 483.2-33.67 483.95-33.03 483.95-31.81L483.95-31.81 483.95-31.2Q483.95-30.2 483.29-29.41 482.63-28.61 481.61-28.61L481.61-28.61 481.12-28.54 480.32-28.54Q480.02-28.61 479.58-28.61 479.14-28.61 478.54-29.21 477.95-29.81 477.95-30.54L477.95-30.54Q477.9-30.74 477.9-30.83L477.9-30.83 477.85-31.32 477.85-31.45 477.95-32.23Q477.95-32.79 478.58-33.54 479.22-34.3 480.58-34.3ZM480.97-0.07L480.97-0.07 479.73-0.07Q478.7-0.07 477.97-0.66 477.24-1.25 477.24-1.94 477.24-2.64 477.65-3.96 478.07-5.27 478.07-6.3L478.07-6.3 478.12-6.91 478.17-8.18 478.17-9.18 478.19-9.84 478.19-17.77Q478.09-19.09 477.78-20L477.78-20 477.56-20.46Q477.04-21.73 477.04-21.85L477.04-21.85 477.04-22.34Q477.04-23.75 479.97-23.75L479.97-23.75 480.85-23.75Q482.63-23.75 483.02-22.36L483.02-22.36Q483.12-22 483.12-18.09L483.12-18.09 483.12-12.55 483.17-10.94 483.27-9.06Q483.27-6.15 484.47-4.13L484.47-4.13Q484.95-3.3 484.95-2.28 484.95-1.27 483.81-0.67 482.66-0.07 480.97-0.07ZM518.75-0.1L518.75-0.1 517.82-0.1Q514.31-0.1 512.77-3.13L512.77-3.13Q511.5-5.59 511.5-11.23 511.5-16.87 510.89-18.97L510.89-18.97Q510.67-19.75 509.67-20.75 508.67-21.75 508.67-22.49L508.67-22.49 508.67-22.8Q508.67-23.44 509.81-24.19 510.96-24.95 511.14-25.28 511.33-25.61 511.88-27.65 512.43-29.69 513.02-30.51 513.62-31.32 514.63-31.32 515.65-31.32 516.08-30.74 516.5-30.15 516.93-28.32 517.36-26.49 517.87-25.84 518.38-25.2 520.36-24.49 522.34-23.78 522.34-22.73L522.34-22.73Q522.34-21.8 520.27-21.07 518.21-20.34 517.67-19.26L517.67-19.26Q516.65-17.19 516.65-11.91 516.65-6.64 517.55-5.46 518.46-4.27 520.49-4 522.53-3.74 522.53-2.47L522.53-2.47Q522.53-1.49 521.37-0.79 520.21-0.1 518.75-0.1ZM568.97-3.52L568.97-3.52Q568.97-0.76 565.9-0.76L565.9-0.76Q564.51-0.76 563.86-1.25 563.21-1.73 563.21-2.91L563.21-2.91 563.24-3.44 563.29-4 563.29-5.3 563.07-11.25Q563.07-16.26 561.99-18.03 560.92-19.8 558.4-19.8L558.4-19.8Q557.06-19.8 555.78-18.97 554.5-18.14 553.76-16.48 553.03-14.82 553.03-7.57L553.03-7.57Q553.03-6.57 553.19-5.08 553.35-3.59 553.35-3.54L553.35-3.54Q553.35-2.2 552.51-1.35 551.66-0.51 550-0.51L550-0.51 549.35-0.51Q546.83-0.51 546.83-2.47L546.83-2.47 546.83-3.13Q546.83-3.52 547.08-4.47L547.08-4.47 547.44-5.81Q547.88-7.89 547.88-14.31L547.88-14.31 547.88-23.56 548-29 548.03-29.76Q548.05-30.52 548.05-31.2 548.05-31.88 547.95-32.45L547.95-32.45 547.83-32.96Q547.66-33.72 547.66-33.86L547.66-33.86Q547.66-35.01 549.03-35.01L549.03-35.01 549.66-35.01Q552.15-35.01 552.79-32.91L552.79-32.91Q553.08-31.98 553.18-28.87 553.28-25.76 553.46-24.18 553.64-22.61 554.5-22.61L554.5-22.61Q554.81-22.61 555.4-22.8L555.4-22.8 555.94-23.02Q558.48-24.15 560.48-24.15L560.48-24.15Q564.92-24.15 566.68-20.48L566.68-20.48Q567.9-17.94 567.9-10.52L567.9-10.52Q567.9-7.81 568.44-5.92 568.97-4.03 568.97-3.52ZM635.15-0.1L635.15-0.1 634.22-0.1Q630.71-0.1 629.17-3.13L629.17-3.13Q627.9-5.59 627.9-11.23 627.9-16.87 627.29-18.97L627.29-18.97Q627.07-19.75 626.07-20.75 625.07-21.75 625.07-22.49L625.07-22.49 625.07-22.8Q625.07-23.44 626.21-24.19 627.36-24.95 627.54-25.28 627.73-25.61 628.28-27.65 628.83-29.69 629.42-30.51 630.02-31.32 631.03-31.32 632.05-31.32 632.48-30.74 632.9-30.15 633.33-28.32 633.76-26.49 634.27-25.84 634.78-25.2 636.76-24.49 638.74-23.78 638.74-22.73L638.74-22.73Q638.74-21.8 636.67-21.07 634.61-20.34 634.07-19.26L634.07-19.26Q633.05-17.19 633.05-11.91 633.05-6.64 633.95-5.46 634.86-4.27 636.89-4 638.93-3.74 638.93-2.47L638.93-2.47Q638.93-1.49 637.77-0.79 636.61-0.1 635.15-0.1ZM685.37-3.52L685.37-3.52Q685.37-0.76 682.3-0.76L682.3-0.76Q680.91-0.76 680.26-1.25 679.61-1.73 679.61-2.91L679.61-2.91 679.64-3.44 679.69-4 679.69-5.3 679.47-11.25Q679.47-16.26 678.39-18.03 677.32-19.8 674.8-19.8L674.8-19.8Q673.46-19.8 672.18-18.97 670.9-18.14 670.16-16.48 669.43-14.82 669.43-7.57L669.43-7.57Q669.43-6.57 669.59-5.08 669.75-3.59 669.75-3.54L669.75-3.54Q669.75-2.2 668.91-1.35 668.06-0.51 666.4-0.51L666.4-0.51 665.75-0.51Q663.23-0.51 663.23-2.47L663.23-2.47 663.23-3.13Q663.23-3.52 663.47-4.47L663.47-4.47 663.84-5.81Q664.28-7.89 664.28-14.31L664.28-14.31 664.28-23.56 664.4-29 664.43-29.76Q664.45-30.52 664.45-31.2 664.45-31.88 664.35-32.45L664.35-32.45 664.23-32.96Q664.06-33.72 664.06-33.86L664.06-33.86Q664.06-35.01 665.43-35.01L665.43-35.01 666.06-35.01Q668.55-35.01 669.19-32.91L669.19-32.91Q669.48-31.98 669.58-28.87 669.68-25.76 669.86-24.18 670.04-22.61 670.9-22.61L670.9-22.61Q671.21-22.61 671.8-22.8L671.8-22.8 672.34-23.02Q674.88-24.15 676.88-24.15L676.88-24.15Q681.32-24.15 683.08-20.48L683.08-20.48Q684.3-17.94 684.3-10.52L684.3-10.52Q684.3-7.81 684.84-5.92 685.37-4.03 685.37-3.52ZM721.49-14.38L721.49-14.38Q723.15-14.38 723.83-14.89 724.52-15.41 724.52-16.06L724.52-16.06 724.52-17.09Q724.52-18.85 723.22-20 721.93-21.14 720.39-21.14L720.39-21.14 719.76-21.14Q717.53-21.14 715.87-19.27 714.21-17.41 714.21-15.19L714.21-15.19 714.21-14.77Q714.21-13.92 715.78-13.92L715.78-13.92 716.34-13.92 716.48-13.94 718.31-14.06 719.54-14.16 720.37-14.26Q720.59-14.28 720.96-14.33 721.34-14.38 721.49-14.38ZM720.49 0.32L720.49 0.32 719.41 0.32Q714.53 0.32 711.58-2.98L711.58-2.98Q710.26-4.44 709.53-6.7 708.79-8.96 708.79-11.18L708.79-11.18 708.79-12.28Q708.79-14.5 709.72-16.94L709.72-16.94Q711.5-21.7 715.78-23.41L715.78-23.41Q717.97-24.32 720.44-24.32L720.44-24.32 720.98-24.32Q724.39-24.32 726.62-22.24L726.62-22.24Q727.89-21.04 728.53-19.37 729.18-17.7 729.18-16.36L729.18-16.36Q729.18-13.4 727.32-12.5L727.32-12.5Q726.05-11.89 721.53-11.35 717-10.82 716.56-10.69L716.56-10.69Q714.43-10.16 714.43-8.79L714.43-8.79Q714.43-6.42 716.61-4.83L716.61-4.83Q718.19-3.66 721.15-3.66L721.15-3.66Q722.27-3.66 724.78-4.37 727.3-5.08 727.54-5.08L727.54-5.08Q728.81-5.08 728.81-3.93L728.81-3.93Q728.81-2.49 726.09-1.09 723.37 0.32 720.49 0.32ZM799.26-13.94L799.67-13.94Q803.39-13.94 803.39-14.65L803.39-14.65 803.39-14.79Q803.39-15.04 803.08-16.22 802.78-17.41 802.73-17.61 802.68-17.82 802.6-18.03 802.53-18.24 801.88-21.01 801.24-23.78 800.21-26.17 799.19-28.56 799.04-28.56 798.89-28.56 798.19-26.81L798.19-26.81Q794.08-16.55 794.08-14.67L794.08-14.67 794.08-14.53Q794.08-13.94 796.6-13.94L796.6-13.94 798.23-13.94 798.45-13.96 799.26-13.94ZM813.2-4.2L813.2-4.2 813.2-3.71Q813.2-2.32 812.03-1.2L812.03-1.2Q811.39-0.59 809.7-0.59 808-0.59 807.29-1.49L807.29-1.49Q807.22-1.59 806.35-4.81 805.49-8.03 804.4-9.27 803.31-10.5 800.16-10.5L800.16-10.5Q794.16-10.5 793.02-9.46 791.89-8.42 790.84-5.08L790.84-5.08Q790.45-3.86 790.3-2.73 790.15-1.61 789.93-1.29L789.93-1.29Q789.49-0.63 788.21-0.63 786.93-0.63 786.17-1.7 785.42-2.76 785.42-4.06 785.42-5.37 786.31-6.68 787.2-7.98 787.6-9.02 788-10.06 791.17-19.34 794.33-28.61 795.41-30.91 796.5-33.2 797.32-33.83 798.14-34.45 799.33-34.45 800.53-34.45 801.51-33.59 802.48-32.74 803.61-30.32L803.61-30.32Q803.63-30.25 811.22-8.84L811.22-8.84Q811.64-7.67 812.42-6.4 813.2-5.13 813.2-4.2ZM847.29 0.24L847.29 0.24 846.75 0.24Q844.41 0.24 842.41-0.63L842.41-0.63Q838.47-2.37 837.08-6.42L837.08-6.42Q836.3-8.72 836.3-11.3L836.3-11.3 836.3-11.87Q836.3-14.75 837.16-17.09L837.16-17.09Q838.79-21.58 843.14-23.51L843.14-23.51Q845.21-24.41 848.24-24.41 851.27-24.41 853.21-23.21 855.15-22 855.15-20.26L855.15-20.26Q855.15-18.38 853.24-18.38L853.24-18.38Q852.68-18.38 851.61-19.02 850.53-19.65 850.39-19.73L850.39-19.73Q848.68-20.53 846.95-20.53L846.95-20.53Q844.58-20.53 843.04-18.32 841.5-16.11 841.5-12.02 841.5-7.93 843.32-5.83 845.14-3.74 848.04-3.74L848.04-3.74Q849.61-3.74 852.01-4.43 854.42-5.13 854.76-5.13L854.76-5.13Q855.74-5.13 855.74-4.05L855.74-4.05Q855.74-2.61 852.96-1.18 850.19 0.24 847.29 0.24ZM890.95-14.38L890.95-14.38Q892.61-14.38 893.29-14.89 893.97-15.41 893.97-16.06L893.97-16.06 893.97-17.09Q893.97-18.85 892.68-20 891.39-21.14 889.85-21.14L889.85-21.14 889.21-21.14Q886.99-21.14 885.33-19.27 883.67-17.41 883.67-15.19L883.67-15.19 883.67-14.77Q883.67-13.92 885.23-13.92L885.23-13.92 885.79-13.92 885.94-13.94 887.77-14.06 888.99-14.16 889.82-14.26Q890.04-14.28 890.42-14.33 890.8-14.38 890.95-14.38ZM889.95 0.32L889.95 0.32 888.87 0.32Q883.99 0.32 881.03-2.98L881.03-2.98Q879.72-4.44 878.98-6.7 878.25-8.96 878.25-11.18L878.25-11.18 878.25-12.28Q878.25-14.5 879.18-16.94L879.18-16.94Q880.96-21.7 885.23-23.41L885.23-23.41Q887.43-24.32 889.9-24.32L889.9-24.32 890.43-24.32Q893.85-24.32 896.07-22.24L896.07-22.24Q897.34-21.04 897.99-19.37 898.64-17.7 898.64-16.36L898.64-16.36Q898.64-13.4 896.78-12.5L896.78-12.5Q895.51-11.89 890.98-11.35 886.45-10.82 886.01-10.69L886.01-10.69Q883.89-10.16 883.89-8.79L883.89-8.79Q883.89-6.42 886.06-4.83L886.06-4.83Q887.65-3.66 890.6-3.66L890.6-3.66Q891.73-3.66 894.24-4.37 896.76-5.08 897-5.08L897-5.08Q898.27-5.08 898.27-3.93L898.27-3.93Q898.27-2.49 895.55-1.09 892.83 0.32 889.95 0.32Z" opacity="1" transform="matrix(1,0,0,1,0,0)" fill="#fff5d0" class="slogan-text-1" data-fill-palette-color="secondary" id="text-1"></path></svg></g></svg></g></svg></g></svg></g><g><svg viewBox="0 0 108.51847948479282 108.51847948479282" height="108.51847948479282" width="108.51847948479282"><g><svg></svg></g><g id="icon-0"><svg viewBox="0 0 108.51847948479282 108.51847948479282" height="108.51847948479282" width="108.51847948479282"><g><rect width="98.67143227228385" height="98.67143227228385" x="4.923523606254484" y="4.923523606254484" fill="#805d0d" data-fill-palette-color="accent"></rect><rect width="98.67143227228385" height="98.67143227228385" x="9.847047212508972" y="-4.440892098500626e-15" fill="#805d0d" opacity="0.5" data-fill-palette-color="accent"></rect></g><g transform="matrix(1,0,0,1,19.809171864842057,14.067210303584254)"><svg viewBox="0 0 68.9001357551087 80.38405887762431" height="80.38405887762431" width="68.9001357551087"><g><svg xmlns="http://www.w3.org/2000/svg" xmlns:xlink="http://www.w3.org/1999/xlink" version="1.1" x="0" y="0" viewBox="19.63 14.567 60.741000000000014 70.86500000000001" enable-background="new 0 0 100 100" xml:space="preserve" height="80.38405887762431" width="68.9001357551087" class="icon-cg-0" data-fill-palette-color="quaternary" id="cg-0"><path fill="#ffffff" d="M50 14.567c0 0-30.37 23.621-30.37 48.931 0 7.454 6.045 13.497 13.497 13.497 6.632 0 12.137-4.788 13.271-11.094-0.435 5.404-1.858 14.867-6.522 19.531H50h10.124c-4.664-4.664-6.088-14.127-6.522-19.531 1.135 6.306 6.64 11.094 13.271 11.094 7.453 0 13.498-6.043 13.498-13.497C80.37 38.188 50 14.567 50 14.567z" data-fill-palette-color="quaternary"></path></svg></g></svg></g></svg></g></svg></g></svg></g><defs></defs></svg><rect width="395.52" height="84.15050413630763" fill="none" stroke="none" visibility="hidden"></rect></g></svg></g></svg>